%
M48
M72
T01C0.0315
T02C0.0320
T03C0.0354
T04C0.0400
T05C0.1969
%
T01
X6890Y2862
X10433Y2862
X11799Y2868
X15339Y2854
X15858Y4250
X17983Y1125
X15858Y9250
X12110Y9388
X10110Y9388
X5608Y14000
X19858Y17625
T02
X2358Y5000
X3358Y5000
X3608Y6500
X2608Y6500
X4608Y6500
X5608Y6500
X6608Y6500
X7608Y6500
X8608Y6500
X8358Y5000
X9358Y5000
X6558Y5000
X5158Y5000
X5608Y9500
X6608Y9500
X7608Y9500
X8608Y9500
X11358Y11500
X13108Y12000
X14108Y13500
X15108Y13500
X16108Y13500
X17858Y13250
X18858Y13250
X19858Y13250
X18608Y10450
X18608Y9050
X19858Y8000
X18358Y7375
X18358Y6375
X18358Y5375
X17983Y4250
X16983Y4250
X14858Y4750
X13858Y4750
X12858Y4750
X12858Y7750
X13858Y7750
X14858Y8750
X13108Y10000
X11358Y13500
X11122Y14177
X11122Y15177
X9358Y14750
X8358Y14750
X7358Y14750
X6108Y16250
X6608Y17250
X6608Y18250
X6608Y19250
X9108Y17250
X9108Y16250
X14108Y15500
X15108Y15500
X16108Y15500
X17858Y16250
X18858Y16250
X19858Y16250
X19858Y5000
X4608Y9500
X3608Y9500
X2608Y9500
X3608Y11750
X3608Y14750
X2108Y16000
X3108Y16250
X3608Y17250
X3608Y18250
X3608Y19250
X2108Y19000
T03
X5558Y11500
X7008Y10750
X9258Y11500
X3308Y10750
T04
X10220Y10668
X12000Y10668
X12000Y8108
X10220Y8108
X8654Y1677
X13579Y1677
X11608Y17250
X11610Y18610
X10610Y18610
X12787Y18630
X13787Y18630
X16108Y18750
T05
X11114Y5815
M30
