G75*
G70*
%OFA0B0*%
%FSLAX24Y24*%
%IPPOS*%
%LPD*%
%AMOC8*
5,1,8,0,0,1.08239X$1,22.5*
%
%ADD10C,0.0060*%
%ADD11C,0.0050*%
%ADD12R,0.0200X0.1000*%
%ADD13C,0.0200*%
%ADD14R,0.0200X0.0150*%
%ADD15C,0.0040*%
%ADD16R,0.1000X0.0200*%
%ADD17C,0.0080*%
%ADD18C,0.0010*%
%ADD19R,0.0200X0.0200*%
%ADD20C,0.0100*%
%ADD21R,0.0200X0.0100*%
%ADD22C,0.0020*%
%ADD23R,0.0200X0.0800*%
%ADD24R,0.0250X0.0200*%
%ADD25R,0.0800X0.0200*%
%ADD26R,0.0200X0.0250*%
%ADD27C,0.0120*%
%ADD28C,0.0240*%
%ADD29R,0.0240X0.0340*%
D10*
X002958Y004500D02*
X003158Y004500D01*
X003158Y005000D01*
X003158Y005500D01*
X002958Y005500D01*
X002958Y004500D01*
X001508Y005000D02*
X001510Y005073D01*
X001516Y005146D01*
X001526Y005218D01*
X001540Y005290D01*
X001557Y005361D01*
X001579Y005431D01*
X001604Y005500D01*
X001633Y005567D01*
X001665Y005632D01*
X001701Y005696D01*
X001741Y005758D01*
X001783Y005817D01*
X001829Y005874D01*
X001878Y005928D01*
X001930Y005980D01*
X001984Y006029D01*
X002041Y006075D01*
X002100Y006117D01*
X002162Y006157D01*
X002226Y006193D01*
X002291Y006225D01*
X002358Y006254D01*
X002427Y006279D01*
X002497Y006301D01*
X002568Y006318D01*
X002640Y006332D01*
X002712Y006342D01*
X002785Y006348D01*
X002858Y006350D01*
X002931Y006348D01*
X003004Y006342D01*
X003076Y006332D01*
X003148Y006318D01*
X003219Y006301D01*
X003289Y006279D01*
X003358Y006254D01*
X003425Y006225D01*
X003490Y006193D01*
X003554Y006157D01*
X003616Y006117D01*
X003675Y006075D01*
X003732Y006029D01*
X003786Y005980D01*
X003838Y005928D01*
X003887Y005874D01*
X003933Y005817D01*
X003975Y005758D01*
X004015Y005696D01*
X004051Y005632D01*
X004083Y005567D01*
X004112Y005500D01*
X004137Y005431D01*
X004159Y005361D01*
X004176Y005290D01*
X004190Y005218D01*
X004200Y005146D01*
X004206Y005073D01*
X004208Y005000D01*
X004206Y004927D01*
X004200Y004854D01*
X004190Y004782D01*
X004176Y004710D01*
X004159Y004639D01*
X004137Y004569D01*
X004112Y004500D01*
X004083Y004433D01*
X004051Y004368D01*
X004015Y004304D01*
X003975Y004242D01*
X003933Y004183D01*
X003887Y004126D01*
X003838Y004072D01*
X003786Y004020D01*
X003732Y003971D01*
X003675Y003925D01*
X003616Y003883D01*
X003554Y003843D01*
X003490Y003807D01*
X003425Y003775D01*
X003358Y003746D01*
X003289Y003721D01*
X003219Y003699D01*
X003148Y003682D01*
X003076Y003668D01*
X003004Y003658D01*
X002931Y003652D01*
X002858Y003650D01*
X002785Y003652D01*
X002712Y003658D01*
X002640Y003668D01*
X002568Y003682D01*
X002497Y003699D01*
X002427Y003721D01*
X002358Y003746D01*
X002291Y003775D01*
X002226Y003807D01*
X002162Y003843D01*
X002100Y003883D01*
X002041Y003925D01*
X001984Y003971D01*
X001930Y004020D01*
X001878Y004072D01*
X001829Y004126D01*
X001783Y004183D01*
X001741Y004242D01*
X001701Y004304D01*
X001665Y004368D01*
X001633Y004433D01*
X001604Y004500D01*
X001579Y004569D01*
X001557Y004639D01*
X001540Y004710D01*
X001526Y004782D01*
X001516Y004854D01*
X001510Y004927D01*
X001508Y005000D01*
X002208Y005000D02*
X002608Y005000D01*
X003158Y005000D02*
X003508Y005000D01*
X003758Y005000D02*
X004058Y005000D01*
X003908Y005150D02*
X003908Y004850D01*
X005208Y005000D02*
X005608Y005000D01*
X004258Y005000D02*
X004260Y005080D01*
X004266Y005159D01*
X004276Y005238D01*
X004290Y005317D01*
X004307Y005395D01*
X004329Y005472D01*
X004354Y005547D01*
X004384Y005621D01*
X004416Y005694D01*
X004453Y005765D01*
X004493Y005834D01*
X004536Y005901D01*
X004583Y005966D01*
X004632Y006028D01*
X004685Y006088D01*
X004741Y006145D01*
X004799Y006200D01*
X004860Y006251D01*
X004924Y006299D01*
X004990Y006344D01*
X005058Y006386D01*
X005128Y006424D01*
X005200Y006458D01*
X005273Y006489D01*
X005348Y006517D01*
X005425Y006540D01*
X005502Y006560D01*
X005580Y006576D01*
X005659Y006588D01*
X005738Y006596D01*
X005818Y006600D01*
X005898Y006600D01*
X005978Y006596D01*
X006057Y006588D01*
X006136Y006576D01*
X006214Y006560D01*
X006291Y006540D01*
X006368Y006517D01*
X006443Y006489D01*
X006516Y006458D01*
X006588Y006424D01*
X006658Y006386D01*
X006726Y006344D01*
X006792Y006299D01*
X006856Y006251D01*
X006917Y006200D01*
X006975Y006145D01*
X007031Y006088D01*
X007084Y006028D01*
X007133Y005966D01*
X007180Y005901D01*
X007223Y005834D01*
X007263Y005765D01*
X007300Y005694D01*
X007332Y005621D01*
X007362Y005547D01*
X007387Y005472D01*
X007409Y005395D01*
X007426Y005317D01*
X007440Y005238D01*
X007450Y005159D01*
X007456Y005080D01*
X007458Y005000D01*
X007456Y004920D01*
X007450Y004841D01*
X007440Y004762D01*
X007426Y004683D01*
X007409Y004605D01*
X007387Y004528D01*
X007362Y004453D01*
X007332Y004379D01*
X007300Y004306D01*
X007263Y004235D01*
X007223Y004166D01*
X007180Y004099D01*
X007133Y004034D01*
X007084Y003972D01*
X007031Y003912D01*
X006975Y003855D01*
X006917Y003800D01*
X006856Y003749D01*
X006792Y003701D01*
X006726Y003656D01*
X006658Y003614D01*
X006588Y003576D01*
X006516Y003542D01*
X006443Y003511D01*
X006368Y003483D01*
X006291Y003460D01*
X006214Y003440D01*
X006136Y003424D01*
X006057Y003412D01*
X005978Y003404D01*
X005898Y003400D01*
X005818Y003400D01*
X005738Y003404D01*
X005659Y003412D01*
X005580Y003424D01*
X005502Y003440D01*
X005425Y003460D01*
X005348Y003483D01*
X005273Y003511D01*
X005200Y003542D01*
X005128Y003576D01*
X005058Y003614D01*
X004990Y003656D01*
X004924Y003701D01*
X004860Y003749D01*
X004799Y003800D01*
X004741Y003855D01*
X004685Y003912D01*
X004632Y003972D01*
X004583Y004034D01*
X004536Y004099D01*
X004493Y004166D01*
X004453Y004235D01*
X004416Y004306D01*
X004384Y004379D01*
X004354Y004453D01*
X004329Y004528D01*
X004307Y004605D01*
X004290Y004683D01*
X004276Y004762D01*
X004266Y004841D01*
X004260Y004920D01*
X004258Y005000D01*
X005958Y004500D02*
X006158Y004500D01*
X006158Y005000D01*
X006158Y005500D01*
X005958Y005500D01*
X005958Y004500D01*
X006158Y005000D02*
X006508Y005000D01*
X006908Y004550D02*
X007208Y004550D01*
X007058Y004700D02*
X007058Y004400D01*
X008008Y004750D02*
X008008Y005250D01*
X008010Y005276D01*
X008015Y005302D01*
X008023Y005327D01*
X008035Y005350D01*
X008049Y005372D01*
X008067Y005391D01*
X008086Y005409D01*
X008108Y005423D01*
X008131Y005435D01*
X008156Y005443D01*
X008182Y005448D01*
X008208Y005450D01*
X009508Y005450D01*
X009534Y005448D01*
X009560Y005443D01*
X009585Y005435D01*
X009608Y005423D01*
X009630Y005409D01*
X009649Y005391D01*
X009667Y005372D01*
X009681Y005350D01*
X009693Y005327D01*
X009701Y005302D01*
X009706Y005276D01*
X009708Y005250D01*
X009708Y004750D01*
X009706Y004724D01*
X009701Y004698D01*
X009693Y004673D01*
X009681Y004650D01*
X009667Y004628D01*
X009649Y004609D01*
X009630Y004591D01*
X009608Y004577D01*
X009585Y004565D01*
X009560Y004557D01*
X009534Y004552D01*
X009508Y004550D01*
X008208Y004550D01*
X008182Y004552D01*
X008156Y004557D01*
X008131Y004565D01*
X008108Y004577D01*
X008086Y004591D01*
X008067Y004609D01*
X008049Y004628D01*
X008035Y004650D01*
X008023Y004673D01*
X008015Y004698D01*
X008010Y004724D01*
X008008Y004750D01*
X008358Y005000D02*
X008728Y005000D01*
X008978Y005000D02*
X009358Y005000D01*
X009108Y006850D02*
X009108Y009150D01*
X002108Y009150D01*
X002108Y008400D01*
X002147Y008398D01*
X002186Y008392D01*
X002224Y008383D01*
X002261Y008370D01*
X002297Y008353D01*
X002330Y008333D01*
X002362Y008309D01*
X002391Y008283D01*
X002417Y008254D01*
X002441Y008222D01*
X002461Y008189D01*
X002478Y008153D01*
X002491Y008116D01*
X002500Y008078D01*
X002506Y008039D01*
X002508Y008000D01*
X002506Y007961D01*
X002500Y007922D01*
X002491Y007884D01*
X002478Y007847D01*
X002461Y007811D01*
X002441Y007778D01*
X002417Y007746D01*
X002391Y007717D01*
X002362Y007691D01*
X002330Y007667D01*
X002297Y007647D01*
X002261Y007630D01*
X002224Y007617D01*
X002186Y007608D01*
X002147Y007602D01*
X002108Y007600D01*
X002108Y006850D01*
X009108Y006850D01*
X010110Y008188D02*
X010710Y008188D01*
X010810Y008188D01*
X010810Y008088D01*
X011410Y008088D01*
X011410Y008188D01*
X011510Y008188D01*
X012110Y008188D01*
X012310Y008388D01*
X012310Y008538D01*
X012310Y008888D01*
X012310Y009888D01*
X012310Y010238D01*
X012310Y010388D01*
X012110Y010588D01*
X011510Y010588D01*
X011410Y010588D01*
X011410Y010688D01*
X010810Y010688D01*
X010810Y010588D01*
X010710Y010588D01*
X010110Y010588D01*
X009910Y010388D01*
X009910Y010238D01*
X009910Y009888D01*
X009910Y008938D01*
X009910Y008538D01*
X009910Y008388D01*
X010110Y008188D01*
X010110Y008538D02*
X010112Y008566D01*
X010118Y008593D01*
X010127Y008619D01*
X010140Y008644D01*
X010157Y008667D01*
X010176Y008687D01*
X010198Y008704D01*
X010222Y008718D01*
X010248Y008728D01*
X010275Y008735D01*
X010303Y008738D01*
X010331Y008737D01*
X010358Y008732D01*
X010385Y008723D01*
X010410Y008711D01*
X010433Y008696D01*
X010454Y008677D01*
X010472Y008656D01*
X010487Y008632D01*
X010498Y008606D01*
X010506Y008580D01*
X010510Y008552D01*
X010510Y008524D01*
X010506Y008496D01*
X010498Y008470D01*
X010487Y008444D01*
X010472Y008420D01*
X010454Y008399D01*
X010433Y008380D01*
X010410Y008365D01*
X010385Y008353D01*
X010358Y008344D01*
X010331Y008339D01*
X010303Y008338D01*
X010275Y008341D01*
X010248Y008348D01*
X010222Y008358D01*
X010198Y008372D01*
X010176Y008389D01*
X010157Y008409D01*
X010140Y008432D01*
X010127Y008457D01*
X010118Y008483D01*
X010112Y008510D01*
X010110Y008538D01*
X010260Y008888D02*
X010260Y009888D01*
X010060Y010238D02*
X010062Y010266D01*
X010068Y010293D01*
X010077Y010319D01*
X010090Y010344D01*
X010107Y010367D01*
X010126Y010387D01*
X010148Y010404D01*
X010172Y010418D01*
X010198Y010428D01*
X010225Y010435D01*
X010253Y010438D01*
X010281Y010437D01*
X010308Y010432D01*
X010335Y010423D01*
X010360Y010411D01*
X010383Y010396D01*
X010404Y010377D01*
X010422Y010356D01*
X010437Y010332D01*
X010448Y010306D01*
X010456Y010280D01*
X010460Y010252D01*
X010460Y010224D01*
X010456Y010196D01*
X010448Y010170D01*
X010437Y010144D01*
X010422Y010120D01*
X010404Y010099D01*
X010383Y010080D01*
X010360Y010065D01*
X010335Y010053D01*
X010308Y010044D01*
X010281Y010039D01*
X010253Y010038D01*
X010225Y010041D01*
X010198Y010048D01*
X010172Y010058D01*
X010148Y010072D01*
X010126Y010089D01*
X010107Y010109D01*
X010090Y010132D01*
X010077Y010157D01*
X010068Y010183D01*
X010062Y010210D01*
X010060Y010238D01*
X010610Y010338D02*
X010910Y010338D01*
X010960Y010238D02*
X011310Y010338D01*
X011610Y010338D01*
X011760Y010238D02*
X011762Y010266D01*
X011768Y010293D01*
X011777Y010319D01*
X011790Y010344D01*
X011807Y010367D01*
X011826Y010387D01*
X011848Y010404D01*
X011872Y010418D01*
X011898Y010428D01*
X011925Y010435D01*
X011953Y010438D01*
X011981Y010437D01*
X012008Y010432D01*
X012035Y010423D01*
X012060Y010411D01*
X012083Y010396D01*
X012104Y010377D01*
X012122Y010356D01*
X012137Y010332D01*
X012148Y010306D01*
X012156Y010280D01*
X012160Y010252D01*
X012160Y010224D01*
X012156Y010196D01*
X012148Y010170D01*
X012137Y010144D01*
X012122Y010120D01*
X012104Y010099D01*
X012083Y010080D01*
X012060Y010065D01*
X012035Y010053D01*
X012008Y010044D01*
X011981Y010039D01*
X011953Y010038D01*
X011925Y010041D01*
X011898Y010048D01*
X011872Y010058D01*
X011848Y010072D01*
X011826Y010089D01*
X011807Y010109D01*
X011790Y010132D01*
X011777Y010157D01*
X011768Y010183D01*
X011762Y010210D01*
X011760Y010238D01*
X012010Y009888D02*
X012010Y008888D01*
X011760Y008538D02*
X011762Y008566D01*
X011768Y008593D01*
X011777Y008619D01*
X011790Y008644D01*
X011807Y008667D01*
X011826Y008687D01*
X011848Y008704D01*
X011872Y008718D01*
X011898Y008728D01*
X011925Y008735D01*
X011953Y008738D01*
X011981Y008737D01*
X012008Y008732D01*
X012035Y008723D01*
X012060Y008711D01*
X012083Y008696D01*
X012104Y008677D01*
X012122Y008656D01*
X012137Y008632D01*
X012148Y008606D01*
X012156Y008580D01*
X012160Y008552D01*
X012160Y008524D01*
X012156Y008496D01*
X012148Y008470D01*
X012137Y008444D01*
X012122Y008420D01*
X012104Y008399D01*
X012083Y008380D01*
X012060Y008365D01*
X012035Y008353D01*
X012008Y008344D01*
X011981Y008339D01*
X011953Y008338D01*
X011925Y008341D01*
X011898Y008348D01*
X011872Y008358D01*
X011848Y008372D01*
X011826Y008389D01*
X011807Y008409D01*
X011790Y008432D01*
X011777Y008457D01*
X011768Y008483D01*
X011762Y008510D01*
X011760Y008538D01*
X011010Y009388D02*
X011012Y009408D01*
X011018Y009426D01*
X011027Y009444D01*
X011039Y009459D01*
X011054Y009471D01*
X011072Y009480D01*
X011090Y009486D01*
X011110Y009488D01*
X011130Y009486D01*
X011148Y009480D01*
X011166Y009471D01*
X011181Y009459D01*
X011193Y009444D01*
X011202Y009426D01*
X011208Y009408D01*
X011210Y009388D01*
X011208Y009368D01*
X011202Y009350D01*
X011193Y009332D01*
X011181Y009317D01*
X011166Y009305D01*
X011148Y009296D01*
X011130Y009290D01*
X011110Y009288D01*
X011090Y009290D01*
X011072Y009296D01*
X011054Y009305D01*
X011039Y009317D01*
X011027Y009332D01*
X011018Y009350D01*
X011012Y009368D01*
X011010Y009388D01*
X010410Y009388D02*
X010412Y009440D01*
X010418Y009492D01*
X010428Y009544D01*
X010441Y009594D01*
X010458Y009644D01*
X010479Y009692D01*
X010504Y009738D01*
X010532Y009782D01*
X010563Y009824D01*
X010597Y009864D01*
X010634Y009901D01*
X010674Y009935D01*
X010716Y009966D01*
X010760Y009994D01*
X010806Y010019D01*
X010854Y010040D01*
X010904Y010057D01*
X010954Y010070D01*
X011006Y010080D01*
X011058Y010086D01*
X011110Y010088D01*
X011162Y010086D01*
X011214Y010080D01*
X011266Y010070D01*
X011316Y010057D01*
X011366Y010040D01*
X011414Y010019D01*
X011460Y009994D01*
X011504Y009966D01*
X011546Y009935D01*
X011586Y009901D01*
X011623Y009864D01*
X011657Y009824D01*
X011688Y009782D01*
X011716Y009738D01*
X011741Y009692D01*
X011762Y009644D01*
X011779Y009594D01*
X011792Y009544D01*
X011802Y009492D01*
X011808Y009440D01*
X011810Y009388D01*
X011808Y009336D01*
X011802Y009284D01*
X011792Y009232D01*
X011779Y009182D01*
X011762Y009132D01*
X011741Y009084D01*
X011716Y009038D01*
X011688Y008994D01*
X011657Y008952D01*
X011623Y008912D01*
X011586Y008875D01*
X011546Y008841D01*
X011504Y008810D01*
X011460Y008782D01*
X011414Y008757D01*
X011366Y008736D01*
X011316Y008719D01*
X011266Y008706D01*
X011214Y008696D01*
X011162Y008690D01*
X011110Y008688D01*
X011058Y008690D01*
X011006Y008696D01*
X010954Y008706D01*
X010904Y008719D01*
X010854Y008736D01*
X010806Y008757D01*
X010760Y008782D01*
X010716Y008810D01*
X010674Y008841D01*
X010634Y008875D01*
X010597Y008912D01*
X010563Y008952D01*
X010532Y008994D01*
X010504Y009038D01*
X010479Y009084D01*
X010458Y009132D01*
X010441Y009182D01*
X010428Y009232D01*
X010418Y009284D01*
X010412Y009336D01*
X010410Y009388D01*
X012558Y007250D02*
X013158Y007250D01*
X013175Y007248D01*
X013192Y007244D01*
X013208Y007237D01*
X013222Y007227D01*
X013235Y007214D01*
X013245Y007200D01*
X013252Y007184D01*
X013256Y007167D01*
X013258Y007150D01*
X013258Y007000D01*
X013208Y006950D01*
X013208Y005550D01*
X013258Y005500D01*
X013258Y005350D01*
X013256Y005333D01*
X013252Y005316D01*
X013245Y005300D01*
X013235Y005286D01*
X013222Y005273D01*
X013208Y005263D01*
X013192Y005256D01*
X013175Y005252D01*
X013158Y005250D01*
X012558Y005250D01*
X012541Y005252D01*
X012524Y005256D01*
X012508Y005263D01*
X012494Y005273D01*
X012481Y005286D01*
X012471Y005300D01*
X012464Y005316D01*
X012460Y005333D01*
X012458Y005350D01*
X012458Y005500D01*
X012508Y005550D01*
X012508Y006950D01*
X012458Y007000D01*
X012458Y007150D01*
X012460Y007167D01*
X012464Y007184D01*
X012471Y007200D01*
X012481Y007214D01*
X012494Y007227D01*
X012508Y007237D01*
X012524Y007244D01*
X012541Y007248D01*
X012558Y007250D01*
X013458Y007150D02*
X013458Y007000D01*
X013508Y006950D01*
X013508Y005550D01*
X013458Y005500D01*
X013458Y005350D01*
X013460Y005333D01*
X013464Y005316D01*
X013471Y005300D01*
X013481Y005286D01*
X013494Y005273D01*
X013508Y005263D01*
X013524Y005256D01*
X013541Y005252D01*
X013558Y005250D01*
X014158Y005250D01*
X014175Y005252D01*
X014192Y005256D01*
X014208Y005263D01*
X014222Y005273D01*
X014235Y005286D01*
X014245Y005300D01*
X014252Y005316D01*
X014256Y005333D01*
X014258Y005350D01*
X014258Y005500D01*
X014208Y005550D01*
X014208Y006950D01*
X014258Y007000D01*
X014258Y007150D01*
X014256Y007167D01*
X014252Y007184D01*
X014245Y007200D01*
X014235Y007214D01*
X014222Y007227D01*
X014208Y007237D01*
X014192Y007244D01*
X014175Y007248D01*
X014158Y007250D01*
X013558Y007250D01*
X013541Y007248D01*
X013524Y007244D01*
X013508Y007237D01*
X013494Y007227D01*
X013481Y007214D01*
X013471Y007200D01*
X013464Y007184D01*
X013460Y007167D01*
X013458Y007150D01*
X014408Y007750D02*
X014408Y007900D01*
X014410Y007917D01*
X014414Y007934D01*
X014421Y007950D01*
X014431Y007964D01*
X014444Y007977D01*
X014458Y007987D01*
X014474Y007994D01*
X014491Y007998D01*
X014508Y008000D01*
X015208Y008000D01*
X015225Y007998D01*
X015242Y007994D01*
X015258Y007987D01*
X015272Y007977D01*
X015285Y007964D01*
X015295Y007950D01*
X015302Y007934D01*
X015306Y007917D01*
X015308Y007900D01*
X015308Y007750D01*
X015258Y007700D01*
X015258Y005800D01*
X015308Y005750D01*
X015308Y005600D01*
X015306Y005583D01*
X015302Y005566D01*
X015295Y005550D01*
X015285Y005536D01*
X015272Y005523D01*
X015258Y005513D01*
X015242Y005506D01*
X015225Y005502D01*
X015208Y005500D01*
X014508Y005500D01*
X014491Y005502D01*
X014474Y005506D01*
X014458Y005513D01*
X014444Y005523D01*
X014431Y005536D01*
X014421Y005550D01*
X014414Y005566D01*
X014410Y005583D01*
X014408Y005600D01*
X014408Y005750D01*
X014458Y005800D01*
X014458Y007700D01*
X014408Y007750D01*
X013358Y010300D02*
X012858Y010300D01*
X012841Y010302D01*
X012824Y010306D01*
X012808Y010313D01*
X012794Y010323D01*
X012781Y010336D01*
X012771Y010350D01*
X012764Y010366D01*
X012760Y010383D01*
X012758Y010400D01*
X012758Y010500D01*
X012808Y010550D01*
X012808Y011450D01*
X012758Y011500D01*
X012758Y011600D01*
X012760Y011617D01*
X012764Y011634D01*
X012771Y011650D01*
X012781Y011664D01*
X012794Y011677D01*
X012808Y011687D01*
X012824Y011694D01*
X012841Y011698D01*
X012858Y011700D01*
X013358Y011700D01*
X013375Y011698D01*
X013392Y011694D01*
X013408Y011687D01*
X013422Y011677D01*
X013435Y011664D01*
X013445Y011650D01*
X013452Y011634D01*
X013456Y011617D01*
X013458Y011600D01*
X013458Y011500D01*
X013408Y011450D01*
X013408Y010550D01*
X013458Y010500D01*
X013458Y010400D01*
X013456Y010383D01*
X013452Y010366D01*
X013445Y010350D01*
X013435Y010336D01*
X013422Y010323D01*
X013408Y010313D01*
X013392Y010306D01*
X013375Y010302D01*
X013358Y010300D01*
X011708Y011900D02*
X011708Y012000D01*
X011658Y012050D01*
X011658Y012950D01*
X011708Y013000D01*
X011708Y013100D01*
X011706Y013117D01*
X011702Y013134D01*
X011695Y013150D01*
X011685Y013164D01*
X011672Y013177D01*
X011658Y013187D01*
X011642Y013194D01*
X011625Y013198D01*
X011608Y013200D01*
X011108Y013200D01*
X011091Y013198D01*
X011074Y013194D01*
X011058Y013187D01*
X011044Y013177D01*
X011031Y013164D01*
X011021Y013150D01*
X011014Y013134D01*
X011010Y013117D01*
X011008Y013100D01*
X011008Y013000D01*
X011058Y012950D01*
X011058Y012050D01*
X011008Y012000D01*
X011008Y011900D01*
X011010Y011883D01*
X011014Y011866D01*
X011021Y011850D01*
X011031Y011836D01*
X011044Y011823D01*
X011058Y011813D01*
X011074Y011806D01*
X011091Y011802D01*
X011108Y011800D01*
X011608Y011800D01*
X011625Y011802D01*
X011642Y011806D01*
X011658Y011813D01*
X011672Y011823D01*
X011685Y011836D01*
X011695Y011850D01*
X011702Y011866D01*
X011706Y011883D01*
X011708Y011900D01*
X010122Y014677D02*
X010124Y014740D01*
X010130Y014802D01*
X010140Y014864D01*
X010153Y014926D01*
X010171Y014986D01*
X010192Y015045D01*
X010217Y015103D01*
X010246Y015159D01*
X010278Y015213D01*
X010313Y015265D01*
X010351Y015314D01*
X010393Y015362D01*
X010437Y015406D01*
X010485Y015448D01*
X010534Y015486D01*
X010586Y015521D01*
X010640Y015553D01*
X010696Y015582D01*
X010754Y015607D01*
X010813Y015628D01*
X010873Y015646D01*
X010935Y015659D01*
X010997Y015669D01*
X011059Y015675D01*
X011122Y015677D01*
X011185Y015675D01*
X011247Y015669D01*
X011309Y015659D01*
X011371Y015646D01*
X011431Y015628D01*
X011490Y015607D01*
X011548Y015582D01*
X011604Y015553D01*
X011658Y015521D01*
X011710Y015486D01*
X011759Y015448D01*
X011807Y015406D01*
X011851Y015362D01*
X011893Y015314D01*
X011931Y015265D01*
X011966Y015213D01*
X011998Y015159D01*
X012027Y015103D01*
X012052Y015045D01*
X012073Y014986D01*
X012091Y014926D01*
X012104Y014864D01*
X012114Y014802D01*
X012120Y014740D01*
X012122Y014677D01*
X012120Y014614D01*
X012114Y014552D01*
X012104Y014490D01*
X012091Y014428D01*
X012073Y014368D01*
X012052Y014309D01*
X012027Y014251D01*
X011998Y014195D01*
X011966Y014141D01*
X011931Y014089D01*
X011893Y014040D01*
X011851Y013992D01*
X011807Y013948D01*
X011759Y013906D01*
X011710Y013868D01*
X011658Y013833D01*
X011604Y013801D01*
X011548Y013772D01*
X011490Y013747D01*
X011431Y013726D01*
X011371Y013708D01*
X011309Y013695D01*
X011247Y013685D01*
X011185Y013679D01*
X011122Y013677D01*
X011059Y013679D01*
X010997Y013685D01*
X010935Y013695D01*
X010873Y013708D01*
X010813Y013726D01*
X010754Y013747D01*
X010696Y013772D01*
X010640Y013801D01*
X010586Y013833D01*
X010534Y013868D01*
X010485Y013906D01*
X010437Y013948D01*
X010393Y013992D01*
X010351Y014040D01*
X010313Y014089D01*
X010278Y014141D01*
X010246Y014195D01*
X010217Y014251D01*
X010192Y014309D01*
X010171Y014368D01*
X010153Y014428D01*
X010140Y014490D01*
X010130Y014552D01*
X010124Y014614D01*
X010122Y014677D01*
X011122Y015527D02*
X011178Y015525D01*
X011233Y015520D01*
X011288Y015511D01*
X011342Y015498D01*
X011395Y015482D01*
X011447Y015462D01*
X011498Y015439D01*
X011547Y015413D01*
X011594Y015384D01*
X011639Y015351D01*
X011682Y015316D01*
X011723Y015278D01*
X011761Y015237D01*
X011796Y015194D01*
X011829Y015149D01*
X011858Y015102D01*
X011884Y015053D01*
X011907Y015002D01*
X011927Y014950D01*
X011943Y014897D01*
X011956Y014843D01*
X011965Y014788D01*
X011970Y014733D01*
X011972Y014677D01*
X011122Y013827D02*
X011066Y013829D01*
X011011Y013834D01*
X010956Y013843D01*
X010902Y013856D01*
X010849Y013872D01*
X010797Y013892D01*
X010746Y013915D01*
X010697Y013941D01*
X010650Y013970D01*
X010605Y014003D01*
X010562Y014038D01*
X010521Y014076D01*
X010483Y014117D01*
X010448Y014160D01*
X010415Y014205D01*
X010386Y014252D01*
X010360Y014301D01*
X010337Y014352D01*
X010317Y014404D01*
X010301Y014457D01*
X010288Y014511D01*
X010279Y014566D01*
X010274Y014621D01*
X010272Y014677D01*
X011122Y015327D02*
X011171Y015325D01*
X011219Y015320D01*
X011267Y015311D01*
X011314Y015298D01*
X011359Y015282D01*
X011404Y015263D01*
X011447Y015240D01*
X011488Y015214D01*
X011527Y015185D01*
X011564Y015153D01*
X011598Y015119D01*
X011630Y015082D01*
X011659Y015043D01*
X011685Y015002D01*
X011708Y014959D01*
X011727Y014914D01*
X011743Y014869D01*
X011756Y014822D01*
X011765Y014774D01*
X011770Y014726D01*
X011772Y014677D01*
X011122Y014027D02*
X011073Y014029D01*
X011025Y014034D01*
X010977Y014043D01*
X010930Y014056D01*
X010885Y014072D01*
X010840Y014091D01*
X010797Y014114D01*
X010756Y014140D01*
X010717Y014169D01*
X010680Y014201D01*
X010646Y014235D01*
X010614Y014272D01*
X010585Y014311D01*
X010559Y014352D01*
X010536Y014395D01*
X010517Y014440D01*
X010501Y014485D01*
X010488Y014532D01*
X010479Y014580D01*
X010474Y014628D01*
X010472Y014677D01*
X011122Y015127D02*
X011164Y015125D01*
X011205Y015119D01*
X011245Y015110D01*
X011285Y015097D01*
X011323Y015080D01*
X011359Y015060D01*
X011393Y015036D01*
X011425Y015010D01*
X011455Y014980D01*
X011481Y014948D01*
X011505Y014914D01*
X011525Y014878D01*
X011542Y014840D01*
X011555Y014800D01*
X011564Y014760D01*
X011570Y014719D01*
X011572Y014677D01*
X011122Y014227D02*
X011080Y014229D01*
X011039Y014235D01*
X010999Y014244D01*
X010959Y014257D01*
X010921Y014274D01*
X010885Y014294D01*
X010851Y014318D01*
X010819Y014344D01*
X010789Y014374D01*
X010763Y014406D01*
X010739Y014440D01*
X010719Y014476D01*
X010702Y014514D01*
X010689Y014554D01*
X010680Y014594D01*
X010674Y014635D01*
X010672Y014677D01*
X009108Y016100D02*
X009108Y016500D01*
X007758Y016750D02*
X007760Y016823D01*
X007766Y016896D01*
X007776Y016968D01*
X007790Y017040D01*
X007807Y017111D01*
X007829Y017181D01*
X007854Y017250D01*
X007883Y017317D01*
X007915Y017382D01*
X007951Y017446D01*
X007991Y017508D01*
X008033Y017567D01*
X008079Y017624D01*
X008128Y017678D01*
X008180Y017730D01*
X008234Y017779D01*
X008291Y017825D01*
X008350Y017867D01*
X008412Y017907D01*
X008476Y017943D01*
X008541Y017975D01*
X008608Y018004D01*
X008677Y018029D01*
X008747Y018051D01*
X008818Y018068D01*
X008890Y018082D01*
X008962Y018092D01*
X009035Y018098D01*
X009108Y018100D01*
X009181Y018098D01*
X009254Y018092D01*
X009326Y018082D01*
X009398Y018068D01*
X009469Y018051D01*
X009539Y018029D01*
X009608Y018004D01*
X009675Y017975D01*
X009740Y017943D01*
X009804Y017907D01*
X009866Y017867D01*
X009925Y017825D01*
X009982Y017779D01*
X010036Y017730D01*
X010088Y017678D01*
X010137Y017624D01*
X010183Y017567D01*
X010225Y017508D01*
X010265Y017446D01*
X010301Y017382D01*
X010333Y017317D01*
X010362Y017250D01*
X010387Y017181D01*
X010409Y017111D01*
X010426Y017040D01*
X010440Y016968D01*
X010450Y016896D01*
X010456Y016823D01*
X010458Y016750D01*
X010456Y016677D01*
X010450Y016604D01*
X010440Y016532D01*
X010426Y016460D01*
X010409Y016389D01*
X010387Y016319D01*
X010362Y016250D01*
X010333Y016183D01*
X010301Y016118D01*
X010265Y016054D01*
X010225Y015992D01*
X010183Y015933D01*
X010137Y015876D01*
X010088Y015822D01*
X010036Y015770D01*
X009982Y015721D01*
X009925Y015675D01*
X009866Y015633D01*
X009804Y015593D01*
X009740Y015557D01*
X009675Y015525D01*
X009608Y015496D01*
X009539Y015471D01*
X009469Y015449D01*
X009398Y015432D01*
X009326Y015418D01*
X009254Y015408D01*
X009181Y015402D01*
X009108Y015400D01*
X009035Y015402D01*
X008962Y015408D01*
X008890Y015418D01*
X008818Y015432D01*
X008747Y015449D01*
X008677Y015471D01*
X008608Y015496D01*
X008541Y015525D01*
X008476Y015557D01*
X008412Y015593D01*
X008350Y015633D01*
X008291Y015675D01*
X008234Y015721D01*
X008180Y015770D01*
X008128Y015822D01*
X008079Y015876D01*
X008033Y015933D01*
X007991Y015992D01*
X007951Y016054D01*
X007915Y016118D01*
X007883Y016183D01*
X007854Y016250D01*
X007829Y016319D01*
X007807Y016389D01*
X007790Y016460D01*
X007776Y016532D01*
X007766Y016604D01*
X007760Y016677D01*
X007758Y016750D01*
X008608Y016850D02*
X009608Y016850D01*
X009608Y017050D01*
X009108Y017050D01*
X008608Y017050D01*
X008608Y016850D01*
X009108Y017050D02*
X009108Y017400D01*
X009108Y017650D02*
X009108Y017950D01*
X008958Y017800D02*
X009258Y017800D01*
X010110Y018360D02*
X010360Y018110D01*
X010860Y018110D01*
X011110Y018360D01*
X011360Y018110D01*
X011860Y018110D01*
X012110Y018360D01*
X012110Y018860D01*
X011860Y019110D01*
X011360Y019110D01*
X011110Y018860D01*
X011110Y018360D01*
X011110Y018860D02*
X010860Y019110D01*
X010360Y019110D01*
X010110Y018860D01*
X010110Y018360D01*
X011108Y017500D02*
X011358Y017750D01*
X011858Y017750D01*
X012108Y017500D01*
X012108Y017000D01*
X011858Y016750D01*
X011358Y016750D01*
X011108Y017000D01*
X011108Y017500D01*
X012287Y018380D02*
X012537Y018130D01*
X013037Y018130D01*
X013287Y018380D01*
X013537Y018130D01*
X014037Y018130D01*
X014287Y018380D01*
X014287Y018880D01*
X014037Y019130D01*
X013537Y019130D01*
X013287Y018880D01*
X013287Y018380D01*
X013287Y018880D02*
X013037Y019130D01*
X012537Y019130D01*
X012287Y018880D01*
X012287Y018380D01*
X015608Y018500D02*
X015858Y018250D01*
X016358Y018250D01*
X016608Y018500D01*
X016608Y019000D01*
X016358Y019250D01*
X015858Y019250D01*
X015608Y019000D01*
X015608Y018500D01*
X019058Y011100D02*
X019058Y010800D01*
X018908Y010950D02*
X019208Y010950D01*
X018608Y010400D02*
X018608Y010050D01*
X019108Y010050D01*
X019108Y009850D01*
X018108Y009850D01*
X018108Y010050D01*
X018608Y010050D01*
X017008Y009750D02*
X017010Y009830D01*
X017016Y009909D01*
X017026Y009988D01*
X017040Y010067D01*
X017057Y010145D01*
X017079Y010222D01*
X017104Y010297D01*
X017134Y010371D01*
X017166Y010444D01*
X017203Y010515D01*
X017243Y010584D01*
X017286Y010651D01*
X017333Y010716D01*
X017382Y010778D01*
X017435Y010838D01*
X017491Y010895D01*
X017549Y010950D01*
X017610Y011001D01*
X017674Y011049D01*
X017740Y011094D01*
X017808Y011136D01*
X017878Y011174D01*
X017950Y011208D01*
X018023Y011239D01*
X018098Y011267D01*
X018175Y011290D01*
X018252Y011310D01*
X018330Y011326D01*
X018409Y011338D01*
X018488Y011346D01*
X018568Y011350D01*
X018648Y011350D01*
X018728Y011346D01*
X018807Y011338D01*
X018886Y011326D01*
X018964Y011310D01*
X019041Y011290D01*
X019118Y011267D01*
X019193Y011239D01*
X019266Y011208D01*
X019338Y011174D01*
X019408Y011136D01*
X019476Y011094D01*
X019542Y011049D01*
X019606Y011001D01*
X019667Y010950D01*
X019725Y010895D01*
X019781Y010838D01*
X019834Y010778D01*
X019883Y010716D01*
X019930Y010651D01*
X019973Y010584D01*
X020013Y010515D01*
X020050Y010444D01*
X020082Y010371D01*
X020112Y010297D01*
X020137Y010222D01*
X020159Y010145D01*
X020176Y010067D01*
X020190Y009988D01*
X020200Y009909D01*
X020206Y009830D01*
X020208Y009750D01*
X020206Y009670D01*
X020200Y009591D01*
X020190Y009512D01*
X020176Y009433D01*
X020159Y009355D01*
X020137Y009278D01*
X020112Y009203D01*
X020082Y009129D01*
X020050Y009056D01*
X020013Y008985D01*
X019973Y008916D01*
X019930Y008849D01*
X019883Y008784D01*
X019834Y008722D01*
X019781Y008662D01*
X019725Y008605D01*
X019667Y008550D01*
X019606Y008499D01*
X019542Y008451D01*
X019476Y008406D01*
X019408Y008364D01*
X019338Y008326D01*
X019266Y008292D01*
X019193Y008261D01*
X019118Y008233D01*
X019041Y008210D01*
X018964Y008190D01*
X018886Y008174D01*
X018807Y008162D01*
X018728Y008154D01*
X018648Y008150D01*
X018568Y008150D01*
X018488Y008154D01*
X018409Y008162D01*
X018330Y008174D01*
X018252Y008190D01*
X018175Y008210D01*
X018098Y008233D01*
X018023Y008261D01*
X017950Y008292D01*
X017878Y008326D01*
X017808Y008364D01*
X017740Y008406D01*
X017674Y008451D01*
X017610Y008499D01*
X017549Y008550D01*
X017491Y008605D01*
X017435Y008662D01*
X017382Y008722D01*
X017333Y008784D01*
X017286Y008849D01*
X017243Y008916D01*
X017203Y008985D01*
X017166Y009056D01*
X017134Y009129D01*
X017104Y009203D01*
X017079Y009278D01*
X017057Y009355D01*
X017040Y009433D01*
X017026Y009512D01*
X017016Y009591D01*
X017010Y009670D01*
X017008Y009750D01*
X018608Y009500D02*
X018608Y009100D01*
X019558Y007500D02*
X020158Y007500D01*
X020175Y007498D01*
X020192Y007494D01*
X020208Y007487D01*
X020222Y007477D01*
X020235Y007464D01*
X020245Y007450D01*
X020252Y007434D01*
X020256Y007417D01*
X020258Y007400D01*
X020258Y007250D01*
X020208Y007200D01*
X020208Y005800D01*
X020258Y005750D01*
X020258Y005600D01*
X020256Y005583D01*
X020252Y005566D01*
X020245Y005550D01*
X020235Y005536D01*
X020222Y005523D01*
X020208Y005513D01*
X020192Y005506D01*
X020175Y005502D01*
X020158Y005500D01*
X019558Y005500D01*
X019541Y005502D01*
X019524Y005506D01*
X019508Y005513D01*
X019494Y005523D01*
X019481Y005536D01*
X019471Y005550D01*
X019464Y005566D01*
X019460Y005583D01*
X019458Y005600D01*
X019458Y005750D01*
X019508Y005800D01*
X019508Y007200D01*
X019458Y007250D01*
X019458Y007400D01*
X019460Y007417D01*
X019464Y007434D01*
X019471Y007450D01*
X019481Y007464D01*
X019494Y007477D01*
X019508Y007487D01*
X019524Y007494D01*
X019541Y007498D01*
X019558Y007500D01*
X018333Y004750D02*
X016633Y004750D01*
X016616Y004748D01*
X016599Y004744D01*
X016583Y004737D01*
X016569Y004727D01*
X016556Y004714D01*
X016546Y004700D01*
X016539Y004684D01*
X016535Y004667D01*
X016533Y004650D01*
X016533Y003850D01*
X016535Y003833D01*
X016539Y003816D01*
X016546Y003800D01*
X016556Y003786D01*
X016569Y003773D01*
X016583Y003763D01*
X016599Y003756D01*
X016616Y003752D01*
X016633Y003750D01*
X018333Y003750D01*
X018350Y003752D01*
X018367Y003756D01*
X018383Y003763D01*
X018397Y003773D01*
X018410Y003786D01*
X018420Y003800D01*
X018427Y003816D01*
X018431Y003833D01*
X018433Y003850D01*
X018433Y004650D01*
X018431Y004667D01*
X018427Y004684D01*
X018420Y004700D01*
X018410Y004714D01*
X018397Y004727D01*
X018383Y004737D01*
X018367Y004744D01*
X018350Y004748D01*
X018333Y004750D01*
X017783Y004250D02*
X017633Y004250D01*
X017583Y004250D01*
X017383Y004250D02*
X017333Y004250D01*
X017183Y004250D01*
X014079Y001927D02*
X014079Y001427D01*
X013829Y001177D01*
X013329Y001177D01*
X013079Y001427D01*
X013079Y001927D01*
X013329Y002177D01*
X013829Y002177D01*
X014079Y001927D01*
X009154Y001927D02*
X009154Y001427D01*
X008904Y001177D01*
X008404Y001177D01*
X008154Y001427D01*
X008154Y001927D01*
X008404Y002177D01*
X008904Y002177D01*
X009154Y001927D01*
X003908Y012250D02*
X003308Y012250D01*
X003291Y012252D01*
X003274Y012256D01*
X003258Y012263D01*
X003244Y012273D01*
X003231Y012286D01*
X003221Y012300D01*
X003214Y012316D01*
X003210Y012333D01*
X003208Y012350D01*
X003208Y012500D01*
X003258Y012550D01*
X003258Y013950D01*
X003208Y014000D01*
X003208Y014150D01*
X003210Y014167D01*
X003214Y014184D01*
X003221Y014200D01*
X003231Y014214D01*
X003244Y014227D01*
X003258Y014237D01*
X003274Y014244D01*
X003291Y014248D01*
X003308Y014250D01*
X003908Y014250D01*
X003925Y014248D01*
X003942Y014244D01*
X003958Y014237D01*
X003972Y014227D01*
X003985Y014214D01*
X003995Y014200D01*
X004002Y014184D01*
X004006Y014167D01*
X004008Y014150D01*
X004008Y014000D01*
X003958Y013950D01*
X003958Y012550D01*
X004008Y012500D01*
X004008Y012350D01*
X004006Y012333D01*
X004002Y012316D01*
X003995Y012300D01*
X003985Y012286D01*
X003972Y012273D01*
X003958Y012263D01*
X003942Y012256D01*
X003925Y012252D01*
X003908Y012250D01*
X002408Y016600D02*
X001808Y016600D01*
X001791Y016602D01*
X001774Y016606D01*
X001758Y016613D01*
X001744Y016623D01*
X001731Y016636D01*
X001721Y016650D01*
X001714Y016666D01*
X001710Y016683D01*
X001708Y016700D01*
X001708Y018300D01*
X001710Y018317D01*
X001714Y018334D01*
X001721Y018350D01*
X001731Y018364D01*
X001744Y018377D01*
X001758Y018387D01*
X001774Y018394D01*
X001791Y018398D01*
X001808Y018400D01*
X002408Y018400D01*
X002425Y018398D01*
X002442Y018394D01*
X002458Y018387D01*
X002472Y018377D01*
X002485Y018364D01*
X002495Y018350D01*
X002502Y018334D01*
X002506Y018317D01*
X002508Y018300D01*
X002508Y016700D01*
X002506Y016683D01*
X002502Y016666D01*
X002495Y016650D01*
X002485Y016636D01*
X002472Y016623D01*
X002458Y016613D01*
X002442Y016606D01*
X002425Y016602D01*
X002408Y016600D01*
X002108Y017250D02*
X002108Y017500D01*
X002358Y017500D01*
X002108Y017500D02*
X002358Y017900D01*
X001858Y017900D01*
X002108Y017500D01*
X001858Y017500D01*
X002108Y017500D02*
X002108Y018100D01*
X004208Y017950D02*
X004208Y018550D01*
X004210Y018567D01*
X004214Y018584D01*
X004221Y018600D01*
X004231Y018614D01*
X004244Y018627D01*
X004258Y018637D01*
X004274Y018644D01*
X004291Y018648D01*
X004308Y018650D01*
X005908Y018650D01*
X005925Y018648D01*
X005942Y018644D01*
X005958Y018637D01*
X005972Y018627D01*
X005985Y018614D01*
X005995Y018600D01*
X006002Y018584D01*
X006006Y018567D01*
X006008Y018550D01*
X006008Y017950D01*
X006006Y017933D01*
X006002Y017916D01*
X005995Y017900D01*
X005985Y017886D01*
X005972Y017873D01*
X005958Y017863D01*
X005942Y017856D01*
X005925Y017852D01*
X005908Y017850D01*
X004308Y017850D01*
X004291Y017852D01*
X004274Y017856D01*
X004258Y017863D01*
X004244Y017873D01*
X004231Y017886D01*
X004221Y017900D01*
X004214Y017916D01*
X004210Y017933D01*
X004208Y017950D01*
X004308Y017650D02*
X005908Y017650D01*
X005925Y017648D01*
X005942Y017644D01*
X005958Y017637D01*
X005972Y017627D01*
X005985Y017614D01*
X005995Y017600D01*
X006002Y017584D01*
X006006Y017567D01*
X006008Y017550D01*
X006008Y016950D01*
X006006Y016933D01*
X006002Y016916D01*
X005995Y016900D01*
X005985Y016886D01*
X005972Y016873D01*
X005958Y016863D01*
X005942Y016856D01*
X005925Y016852D01*
X005908Y016850D01*
X004308Y016850D01*
X004291Y016852D01*
X004274Y016856D01*
X004258Y016863D01*
X004244Y016873D01*
X004231Y016886D01*
X004221Y016900D01*
X004214Y016916D01*
X004210Y016933D01*
X004208Y016950D01*
X004208Y017550D01*
X004210Y017567D01*
X004214Y017584D01*
X004221Y017600D01*
X004231Y017614D01*
X004244Y017627D01*
X004258Y017637D01*
X004274Y017644D01*
X004291Y017648D01*
X004308Y017650D01*
X004708Y018000D02*
X005108Y018250D01*
X005108Y018500D01*
X005108Y018250D02*
X005108Y018000D01*
X004708Y018000D02*
X004708Y018500D01*
X005108Y018250D01*
X004508Y018250D01*
X005108Y018250D02*
X005358Y018250D01*
X005908Y018850D02*
X004308Y018850D01*
X004291Y018852D01*
X004274Y018856D01*
X004258Y018863D01*
X004244Y018873D01*
X004231Y018886D01*
X004221Y018900D01*
X004214Y018916D01*
X004210Y018933D01*
X004208Y018950D01*
X004208Y019550D01*
X004210Y019567D01*
X004214Y019584D01*
X004221Y019600D01*
X004231Y019614D01*
X004244Y019627D01*
X004258Y019637D01*
X004274Y019644D01*
X004291Y019648D01*
X004308Y019650D01*
X005908Y019650D01*
X005925Y019648D01*
X005942Y019644D01*
X005958Y019637D01*
X005972Y019627D01*
X005985Y019614D01*
X005995Y019600D01*
X006002Y019584D01*
X006006Y019567D01*
X006008Y019550D01*
X006008Y018950D01*
X006006Y018933D01*
X006002Y018916D01*
X005995Y018900D01*
X005985Y018886D01*
X005972Y018873D01*
X005958Y018863D01*
X005942Y018856D01*
X005925Y018852D01*
X005908Y018850D01*
X005508Y019000D02*
X005108Y019250D01*
X005108Y019000D01*
X005108Y019250D02*
X004858Y019250D01*
X005108Y019250D02*
X005108Y019500D01*
X005108Y019250D02*
X005508Y019500D01*
X005508Y019000D01*
X005708Y019250D02*
X005108Y019250D01*
X005108Y017500D02*
X005108Y017250D01*
X005108Y017000D01*
X005108Y017250D02*
X004858Y017250D01*
X005108Y017250D02*
X005508Y017500D01*
X005508Y017000D01*
X005108Y017250D01*
X005708Y017250D01*
D11*
X002488Y003975D02*
X002338Y003975D01*
X002262Y004050D01*
X002262Y004350D01*
X002338Y004425D01*
X002488Y004425D01*
X002563Y004350D01*
X002723Y004350D02*
X002798Y004425D01*
X002948Y004425D01*
X003023Y004350D01*
X003023Y004275D01*
X002723Y003975D01*
X003023Y003975D01*
X002563Y004050D02*
X002488Y003975D01*
X005162Y004050D02*
X005162Y003750D01*
X005238Y003675D01*
X005388Y003675D01*
X005463Y003750D01*
X005623Y003675D02*
X005923Y003675D01*
X005773Y003675D02*
X005773Y004125D01*
X005623Y003975D01*
X005463Y004050D02*
X005388Y004125D01*
X005238Y004125D01*
X005162Y004050D01*
X006882Y004437D02*
X006882Y003059D01*
X006685Y002862D02*
X006687Y002889D01*
X006693Y002916D01*
X006702Y002942D01*
X006715Y002966D01*
X006731Y002989D01*
X006750Y003008D01*
X006772Y003025D01*
X006796Y003039D01*
X006821Y003049D01*
X006848Y003056D01*
X006875Y003059D01*
X006903Y003058D01*
X006930Y003053D01*
X006956Y003045D01*
X006980Y003033D01*
X007003Y003017D01*
X007024Y002999D01*
X007041Y002978D01*
X007056Y002954D01*
X007067Y002929D01*
X007075Y002903D01*
X007079Y002876D01*
X007079Y002848D01*
X007075Y002821D01*
X007067Y002795D01*
X007056Y002770D01*
X007041Y002746D01*
X007024Y002725D01*
X007003Y002707D01*
X006981Y002691D01*
X006956Y002679D01*
X006930Y002671D01*
X006903Y002666D01*
X006875Y002665D01*
X006848Y002668D01*
X006821Y002675D01*
X006796Y002685D01*
X006772Y002699D01*
X006750Y002716D01*
X006731Y002735D01*
X006715Y002758D01*
X006702Y002782D01*
X006693Y002808D01*
X006687Y002835D01*
X006685Y002862D01*
X008149Y002873D02*
X008149Y002422D01*
X008374Y002422D01*
X008449Y002497D01*
X008449Y002572D01*
X008374Y002647D01*
X008149Y002647D01*
X008374Y002647D02*
X008449Y002722D01*
X008449Y002797D01*
X008374Y002873D01*
X008149Y002873D01*
X008609Y002647D02*
X008909Y002647D01*
X008457Y001681D02*
X008459Y001708D01*
X008465Y001735D01*
X008474Y001761D01*
X008487Y001785D01*
X008503Y001808D01*
X008522Y001827D01*
X008544Y001844D01*
X008568Y001858D01*
X008593Y001868D01*
X008620Y001875D01*
X008647Y001878D01*
X008675Y001877D01*
X008702Y001872D01*
X008728Y001864D01*
X008752Y001852D01*
X008775Y001836D01*
X008796Y001818D01*
X008813Y001797D01*
X008828Y001773D01*
X008839Y001748D01*
X008847Y001722D01*
X008851Y001695D01*
X008851Y001667D01*
X008847Y001640D01*
X008839Y001614D01*
X008828Y001589D01*
X008813Y001565D01*
X008796Y001544D01*
X008775Y001526D01*
X008753Y001510D01*
X008728Y001498D01*
X008702Y001490D01*
X008675Y001485D01*
X008647Y001484D01*
X008620Y001487D01*
X008593Y001494D01*
X008568Y001504D01*
X008544Y001518D01*
X008522Y001535D01*
X008503Y001554D01*
X008487Y001577D01*
X008474Y001601D01*
X008465Y001627D01*
X008459Y001654D01*
X008457Y001681D01*
X010228Y002862D02*
X010230Y002889D01*
X010236Y002916D01*
X010245Y002942D01*
X010258Y002966D01*
X010274Y002989D01*
X010293Y003008D01*
X010315Y003025D01*
X010339Y003039D01*
X010364Y003049D01*
X010391Y003056D01*
X010418Y003059D01*
X010446Y003058D01*
X010473Y003053D01*
X010499Y003045D01*
X010523Y003033D01*
X010546Y003017D01*
X010567Y002999D01*
X010584Y002978D01*
X010599Y002954D01*
X010610Y002929D01*
X010618Y002903D01*
X010622Y002876D01*
X010622Y002848D01*
X010618Y002821D01*
X010610Y002795D01*
X010599Y002770D01*
X010584Y002746D01*
X010567Y002725D01*
X010546Y002707D01*
X010524Y002691D01*
X010499Y002679D01*
X010473Y002671D01*
X010446Y002666D01*
X010418Y002665D01*
X010391Y002668D01*
X010364Y002675D01*
X010339Y002685D01*
X010315Y002699D01*
X010293Y002716D01*
X010274Y002735D01*
X010258Y002758D01*
X010245Y002782D01*
X010236Y002808D01*
X010230Y002835D01*
X010228Y002862D01*
X010425Y003059D02*
X010425Y004437D01*
X009423Y004425D02*
X009423Y004350D01*
X009123Y004050D01*
X009123Y003975D01*
X008963Y004050D02*
X008888Y003975D01*
X008738Y003975D01*
X008662Y004050D01*
X008662Y004350D01*
X008738Y004425D01*
X008888Y004425D01*
X008963Y004350D01*
X009123Y004425D02*
X009423Y004425D01*
X009412Y006625D02*
X009638Y006625D01*
X009713Y006700D01*
X009713Y007000D01*
X009638Y007075D01*
X009412Y007075D01*
X009412Y006625D01*
X009873Y006625D02*
X010173Y006625D01*
X010023Y006625D02*
X010023Y007075D01*
X009873Y006925D01*
X010260Y007552D02*
X010260Y007853D01*
X010485Y007778D02*
X010035Y007778D01*
X010260Y007552D01*
X011735Y007627D02*
X011810Y007552D01*
X011735Y007627D02*
X011735Y007778D01*
X011810Y007853D01*
X011885Y007853D01*
X012185Y007552D01*
X012185Y007853D01*
X010622Y009358D02*
X010624Y009402D01*
X010630Y009446D01*
X010640Y009489D01*
X010653Y009531D01*
X010671Y009571D01*
X010692Y009610D01*
X010716Y009647D01*
X010743Y009682D01*
X010774Y009714D01*
X010807Y009743D01*
X010843Y009769D01*
X010881Y009791D01*
X010921Y009810D01*
X010962Y009826D01*
X011005Y009838D01*
X011048Y009846D01*
X011092Y009850D01*
X011136Y009850D01*
X011180Y009846D01*
X011223Y009838D01*
X011266Y009826D01*
X011307Y009810D01*
X011347Y009791D01*
X011385Y009769D01*
X011421Y009743D01*
X011454Y009714D01*
X011485Y009682D01*
X011512Y009647D01*
X011536Y009610D01*
X011557Y009571D01*
X011575Y009531D01*
X011588Y009489D01*
X011598Y009446D01*
X011604Y009402D01*
X011606Y009358D01*
X011604Y009314D01*
X011598Y009270D01*
X011588Y009227D01*
X011575Y009185D01*
X011557Y009145D01*
X011536Y009106D01*
X011512Y009069D01*
X011485Y009034D01*
X011454Y009002D01*
X011421Y008973D01*
X011385Y008947D01*
X011347Y008925D01*
X011307Y008906D01*
X011266Y008890D01*
X011223Y008878D01*
X011180Y008870D01*
X011136Y008866D01*
X011092Y008866D01*
X011048Y008870D01*
X011005Y008878D01*
X010962Y008890D01*
X010921Y008906D01*
X010881Y008925D01*
X010843Y008947D01*
X010807Y008973D01*
X010774Y009002D01*
X010743Y009034D01*
X010716Y009069D01*
X010692Y009106D01*
X010671Y009145D01*
X010653Y009185D01*
X010640Y009227D01*
X010630Y009270D01*
X010624Y009314D01*
X010622Y009358D01*
X011935Y010652D02*
X011785Y010803D01*
X012235Y010803D01*
X012235Y010953D02*
X012235Y010652D01*
X010806Y011977D02*
X010506Y011977D01*
X010656Y011977D02*
X010656Y012427D01*
X010506Y012277D01*
X010346Y012352D02*
X010271Y012427D01*
X010121Y012427D01*
X010045Y012352D01*
X010045Y012277D01*
X010121Y012202D01*
X010271Y012202D01*
X010346Y012127D01*
X010346Y012052D01*
X010271Y011977D01*
X010121Y011977D01*
X010045Y012052D01*
X010110Y011053D02*
X010035Y010978D01*
X010035Y010827D01*
X010110Y010752D01*
X010260Y010903D02*
X010260Y010978D01*
X010335Y011053D01*
X010410Y011053D01*
X010485Y010978D01*
X010485Y010827D01*
X010410Y010752D01*
X010260Y010978D02*
X010185Y011053D01*
X010110Y011053D01*
X008723Y013075D02*
X008423Y013075D01*
X008573Y013075D02*
X008573Y013525D01*
X008423Y013375D01*
X008263Y013525D02*
X007962Y013525D01*
X008113Y013525D02*
X008113Y013075D01*
X007802Y013225D02*
X007802Y013525D01*
X007802Y013225D02*
X007652Y013075D01*
X007502Y013225D01*
X007502Y013525D01*
X007404Y015188D02*
X007431Y015244D01*
X007462Y015298D01*
X007496Y015350D01*
X007533Y015400D01*
X009183Y015400D01*
X009407Y014800D02*
X008911Y014800D01*
X008806Y014800D01*
X007911Y014800D01*
X007806Y014800D01*
X007309Y014800D01*
X007314Y014859D01*
X007321Y014917D01*
X007332Y014975D01*
X007347Y015032D01*
X007364Y015088D01*
X007384Y015143D01*
X007408Y015197D01*
X007408Y014303D02*
X007437Y014246D01*
X007470Y014190D01*
X007505Y014137D01*
X007545Y014086D01*
X007587Y014038D01*
X007632Y013992D01*
X007679Y013949D01*
X007729Y013909D01*
X007782Y013872D01*
X007837Y013839D01*
X007893Y013808D01*
X007952Y013782D01*
X008012Y013759D01*
X008073Y013739D01*
X008135Y013724D01*
X008198Y013712D01*
X008262Y013704D01*
X008326Y013700D01*
X008390Y013700D01*
X008454Y013704D01*
X008518Y013712D01*
X008581Y013724D01*
X008643Y013739D01*
X008704Y013759D01*
X008764Y013782D01*
X008823Y013808D01*
X008879Y013839D01*
X008934Y013872D01*
X008987Y013909D01*
X009037Y013949D01*
X009084Y013992D01*
X009129Y014038D01*
X009171Y014086D01*
X009211Y014137D01*
X009246Y014190D01*
X009279Y014246D01*
X009308Y014303D01*
X009308Y015197D02*
X009281Y015251D01*
X009251Y015302D01*
X009218Y015352D01*
X009183Y015400D01*
X009758Y016154D02*
X010058Y016154D01*
X010133Y016229D01*
X010133Y016379D01*
X010058Y016454D01*
X010058Y016615D02*
X010133Y016690D01*
X010133Y016840D01*
X010058Y016915D01*
X009983Y016915D01*
X009908Y016840D01*
X009908Y016765D01*
X009908Y016840D02*
X009833Y016915D01*
X009758Y016915D01*
X009683Y016840D01*
X009683Y016690D01*
X009758Y016615D01*
X009758Y016454D02*
X009683Y016379D01*
X009683Y016229D01*
X009758Y016154D01*
X010605Y017105D02*
X010830Y017105D01*
X010905Y017180D01*
X010905Y017255D01*
X010830Y017330D01*
X010605Y017330D01*
X010605Y017105D02*
X010605Y017556D01*
X010830Y017556D01*
X010905Y017481D01*
X010905Y017405D01*
X010830Y017330D01*
X011066Y017330D02*
X011216Y017330D01*
X011066Y017105D02*
X011066Y017556D01*
X011366Y017556D01*
X011526Y017405D02*
X011676Y017556D01*
X011676Y017105D01*
X011526Y017105D02*
X011826Y017105D01*
X011986Y017105D02*
X012061Y017105D01*
X012061Y017180D01*
X011986Y017180D01*
X011986Y017105D01*
X012217Y017105D02*
X012517Y017405D01*
X012517Y017481D01*
X012442Y017556D01*
X012292Y017556D01*
X012217Y017481D01*
X012217Y017105D02*
X012517Y017105D01*
X012782Y017125D02*
X013008Y017125D01*
X013083Y017200D01*
X013083Y017275D01*
X013008Y017350D01*
X012782Y017350D01*
X012782Y017125D02*
X012782Y017575D01*
X013008Y017575D01*
X013083Y017500D01*
X013083Y017425D01*
X013008Y017350D01*
X013243Y017350D02*
X013393Y017350D01*
X013243Y017125D02*
X013243Y017575D01*
X013543Y017575D01*
X013703Y017425D02*
X013853Y017575D01*
X013853Y017125D01*
X013883Y017175D02*
X013883Y016875D01*
X014033Y016725D01*
X014184Y016875D01*
X014184Y017175D01*
X014164Y017200D02*
X014239Y017200D01*
X014239Y017125D01*
X014164Y017125D01*
X014164Y017200D01*
X014003Y017125D02*
X013703Y017125D01*
X014344Y017175D02*
X014644Y017175D01*
X014694Y017125D02*
X014394Y017125D01*
X014494Y017175D02*
X014494Y016725D01*
X014804Y016800D02*
X014879Y016725D01*
X015029Y016725D01*
X015104Y016800D01*
X015104Y016950D01*
X015029Y017025D01*
X014954Y017025D01*
X014804Y016950D01*
X014804Y017175D01*
X015104Y017175D01*
X014544Y017125D02*
X014544Y017575D01*
X014394Y017425D01*
X013575Y018610D02*
X013577Y018637D01*
X013583Y018664D01*
X013592Y018690D01*
X013605Y018714D01*
X013621Y018737D01*
X013640Y018756D01*
X013662Y018773D01*
X013686Y018787D01*
X013711Y018797D01*
X013738Y018804D01*
X013765Y018807D01*
X013793Y018806D01*
X013820Y018801D01*
X013846Y018793D01*
X013870Y018781D01*
X013893Y018765D01*
X013914Y018747D01*
X013931Y018726D01*
X013946Y018702D01*
X013957Y018677D01*
X013965Y018651D01*
X013969Y018624D01*
X013969Y018596D01*
X013965Y018569D01*
X013957Y018543D01*
X013946Y018518D01*
X013931Y018494D01*
X013914Y018473D01*
X013893Y018455D01*
X013871Y018439D01*
X013846Y018427D01*
X013820Y018419D01*
X013793Y018414D01*
X013765Y018413D01*
X013738Y018416D01*
X013711Y018423D01*
X013686Y018433D01*
X013662Y018447D01*
X013640Y018464D01*
X013621Y018483D01*
X013605Y018506D01*
X013592Y018530D01*
X013583Y018556D01*
X013577Y018583D01*
X013575Y018610D01*
X012590Y018610D02*
X012592Y018637D01*
X012598Y018664D01*
X012607Y018690D01*
X012620Y018714D01*
X012636Y018737D01*
X012655Y018756D01*
X012677Y018773D01*
X012701Y018787D01*
X012726Y018797D01*
X012753Y018804D01*
X012780Y018807D01*
X012808Y018806D01*
X012835Y018801D01*
X012861Y018793D01*
X012885Y018781D01*
X012908Y018765D01*
X012929Y018747D01*
X012946Y018726D01*
X012961Y018702D01*
X012972Y018677D01*
X012980Y018651D01*
X012984Y018624D01*
X012984Y018596D01*
X012980Y018569D01*
X012972Y018543D01*
X012961Y018518D01*
X012946Y018494D01*
X012929Y018473D01*
X012908Y018455D01*
X012886Y018439D01*
X012861Y018427D01*
X012835Y018419D01*
X012808Y018414D01*
X012780Y018413D01*
X012753Y018416D01*
X012726Y018423D01*
X012701Y018433D01*
X012677Y018447D01*
X012655Y018464D01*
X012636Y018483D01*
X012620Y018506D01*
X012607Y018530D01*
X012598Y018556D01*
X012592Y018583D01*
X012590Y018610D01*
X011864Y018370D02*
X011864Y018295D01*
X011789Y018220D01*
X011564Y018220D01*
X011789Y018220D02*
X011864Y018145D01*
X011864Y018070D01*
X011789Y017995D01*
X011564Y017995D01*
X011564Y018445D01*
X011789Y018445D01*
X011864Y018370D01*
X011409Y018610D02*
X011411Y018637D01*
X011417Y018664D01*
X011426Y018690D01*
X011439Y018714D01*
X011455Y018737D01*
X011474Y018756D01*
X011496Y018773D01*
X011520Y018787D01*
X011545Y018797D01*
X011572Y018804D01*
X011599Y018807D01*
X011627Y018806D01*
X011654Y018801D01*
X011680Y018793D01*
X011704Y018781D01*
X011727Y018765D01*
X011748Y018747D01*
X011765Y018726D01*
X011780Y018702D01*
X011791Y018677D01*
X011799Y018651D01*
X011803Y018624D01*
X011803Y018596D01*
X011799Y018569D01*
X011791Y018543D01*
X011780Y018518D01*
X011765Y018494D01*
X011748Y018473D01*
X011727Y018455D01*
X011705Y018439D01*
X011680Y018427D01*
X011654Y018419D01*
X011627Y018414D01*
X011599Y018413D01*
X011572Y018416D01*
X011545Y018423D01*
X011520Y018433D01*
X011496Y018447D01*
X011474Y018464D01*
X011455Y018483D01*
X011439Y018506D01*
X011426Y018530D01*
X011417Y018556D01*
X011411Y018583D01*
X011409Y018610D01*
X011404Y018445D02*
X011103Y018445D01*
X011253Y018445D02*
X011253Y017995D01*
X010425Y018610D02*
X010427Y018637D01*
X010433Y018664D01*
X010442Y018690D01*
X010455Y018714D01*
X010471Y018737D01*
X010490Y018756D01*
X010512Y018773D01*
X010536Y018787D01*
X010561Y018797D01*
X010588Y018804D01*
X010615Y018807D01*
X010643Y018806D01*
X010670Y018801D01*
X010696Y018793D01*
X010720Y018781D01*
X010743Y018765D01*
X010764Y018747D01*
X010781Y018726D01*
X010796Y018702D01*
X010807Y018677D01*
X010815Y018651D01*
X010819Y018624D01*
X010819Y018596D01*
X010815Y018569D01*
X010807Y018543D01*
X010796Y018518D01*
X010781Y018494D01*
X010764Y018473D01*
X010743Y018455D01*
X010721Y018439D01*
X010696Y018427D01*
X010670Y018419D01*
X010643Y018414D01*
X010615Y018413D01*
X010588Y018416D01*
X010561Y018423D01*
X010536Y018433D01*
X010512Y018447D01*
X010490Y018464D01*
X010471Y018483D01*
X010455Y018506D01*
X010442Y018530D01*
X010433Y018556D01*
X010427Y018583D01*
X010425Y018610D01*
X009244Y018610D02*
X009246Y018637D01*
X009252Y018664D01*
X009261Y018690D01*
X009274Y018714D01*
X009290Y018737D01*
X009309Y018756D01*
X009331Y018773D01*
X009355Y018787D01*
X009380Y018797D01*
X009407Y018804D01*
X009434Y018807D01*
X009462Y018806D01*
X009489Y018801D01*
X009515Y018793D01*
X009539Y018781D01*
X009562Y018765D01*
X009583Y018747D01*
X009600Y018726D01*
X009615Y018702D01*
X009626Y018677D01*
X009634Y018651D01*
X009638Y018624D01*
X009638Y018596D01*
X009634Y018569D01*
X009626Y018543D01*
X009615Y018518D01*
X009600Y018494D01*
X009583Y018473D01*
X009562Y018455D01*
X009540Y018439D01*
X009515Y018427D01*
X009489Y018419D01*
X009462Y018414D01*
X009434Y018413D01*
X009407Y018416D01*
X009380Y018423D01*
X009355Y018433D01*
X009331Y018447D01*
X009309Y018464D01*
X009290Y018483D01*
X009274Y018506D01*
X009261Y018530D01*
X009252Y018556D01*
X009246Y018583D01*
X009244Y018610D01*
X008623Y018500D02*
X008323Y018500D01*
X008548Y018725D01*
X008548Y018275D01*
X008260Y018610D02*
X008262Y018637D01*
X008268Y018664D01*
X008277Y018690D01*
X008290Y018714D01*
X008306Y018737D01*
X008325Y018756D01*
X008347Y018773D01*
X008371Y018787D01*
X008396Y018797D01*
X008423Y018804D01*
X008450Y018807D01*
X008478Y018806D01*
X008505Y018801D01*
X008531Y018793D01*
X008555Y018781D01*
X008578Y018765D01*
X008599Y018747D01*
X008616Y018726D01*
X008631Y018702D01*
X008642Y018677D01*
X008650Y018651D01*
X008654Y018624D01*
X008654Y018596D01*
X008650Y018569D01*
X008642Y018543D01*
X008631Y018518D01*
X008616Y018494D01*
X008599Y018473D01*
X008578Y018455D01*
X008556Y018439D01*
X008531Y018427D01*
X008505Y018419D01*
X008478Y018414D01*
X008450Y018413D01*
X008423Y018416D01*
X008396Y018423D01*
X008371Y018433D01*
X008347Y018447D01*
X008325Y018464D01*
X008306Y018483D01*
X008290Y018506D01*
X008277Y018530D01*
X008268Y018556D01*
X008262Y018583D01*
X008260Y018610D01*
X008163Y018650D02*
X008088Y018725D01*
X007862Y018725D01*
X007862Y018275D01*
X008088Y018275D01*
X008163Y018350D01*
X008163Y018650D01*
X008088Y019025D02*
X007862Y019025D01*
X007862Y019475D01*
X008088Y019475D01*
X008163Y019400D01*
X008163Y019100D01*
X008088Y019025D01*
X008323Y019100D02*
X008398Y019025D01*
X008548Y019025D01*
X008623Y019100D01*
X008623Y019250D01*
X008548Y019325D01*
X008473Y019325D01*
X008323Y019250D01*
X008323Y019475D01*
X008623Y019475D01*
X007702Y019475D02*
X007702Y019175D01*
X007552Y019025D01*
X007402Y019175D01*
X007402Y019475D01*
X007402Y018725D02*
X007402Y018425D01*
X007552Y018275D01*
X007702Y018425D01*
X007702Y018725D01*
X007784Y017975D02*
X007784Y017675D01*
X007633Y017525D01*
X007483Y017675D01*
X007483Y017975D01*
X007944Y017975D02*
X007944Y017525D01*
X008169Y017525D01*
X008244Y017600D01*
X008244Y017900D01*
X008169Y017975D01*
X007944Y017975D01*
X008404Y017900D02*
X008479Y017975D01*
X008629Y017975D01*
X008704Y017900D01*
X008704Y017825D01*
X008629Y017750D01*
X008704Y017675D01*
X008704Y017600D01*
X008629Y017525D01*
X008479Y017525D01*
X008404Y017600D01*
X008554Y017750D02*
X008629Y017750D01*
X005703Y015555D02*
X005703Y015480D01*
X005403Y015180D01*
X005403Y015105D01*
X005243Y015180D02*
X005243Y015480D01*
X005168Y015555D01*
X004942Y015555D01*
X004942Y015105D01*
X005168Y015105D01*
X005243Y015180D01*
X005403Y015555D02*
X005703Y015555D01*
X004782Y015555D02*
X004782Y015255D01*
X004632Y015105D01*
X004482Y015255D01*
X004482Y015555D01*
X002083Y013771D02*
X002083Y013621D01*
X002008Y013546D01*
X001858Y013546D01*
X001858Y013771D01*
X001933Y013846D01*
X002008Y013846D01*
X002083Y013771D01*
X001858Y013546D02*
X001708Y013696D01*
X001633Y013846D01*
X001708Y013386D02*
X001633Y013311D01*
X001633Y013085D01*
X002083Y013085D01*
X002083Y013311D01*
X002008Y013386D01*
X001708Y013386D01*
X001633Y012925D02*
X001933Y012925D01*
X002083Y012775D01*
X001933Y012625D01*
X001633Y012625D01*
X009407Y014800D02*
X009402Y014859D01*
X009395Y014917D01*
X009384Y014975D01*
X009369Y015032D01*
X009352Y015088D01*
X009332Y015143D01*
X009308Y015197D01*
X007309Y014800D02*
X007308Y014736D01*
X007311Y014672D01*
X007318Y014608D01*
X007328Y014545D01*
X007343Y014483D01*
X007361Y014422D01*
X007383Y014361D01*
X007408Y014303D01*
X009308Y014303D02*
X009333Y014361D01*
X009355Y014422D01*
X009373Y014483D01*
X009388Y014545D01*
X009398Y014608D01*
X009405Y014672D01*
X009408Y014736D01*
X009407Y014800D01*
X010130Y014673D02*
X010132Y014735D01*
X010138Y014798D01*
X010148Y014859D01*
X010162Y014920D01*
X010179Y014980D01*
X010200Y015039D01*
X010226Y015096D01*
X010254Y015151D01*
X010286Y015205D01*
X010322Y015256D01*
X010360Y015306D01*
X010402Y015352D01*
X010446Y015396D01*
X010494Y015437D01*
X010543Y015475D01*
X010595Y015509D01*
X010649Y015540D01*
X010705Y015568D01*
X010763Y015592D01*
X010822Y015613D01*
X010882Y015629D01*
X010943Y015642D01*
X011005Y015651D01*
X011067Y015656D01*
X011130Y015657D01*
X011192Y015654D01*
X011254Y015647D01*
X011316Y015636D01*
X011376Y015621D01*
X011436Y015603D01*
X011494Y015581D01*
X011551Y015555D01*
X011606Y015525D01*
X011659Y015492D01*
X011710Y015456D01*
X011758Y015417D01*
X011804Y015374D01*
X011847Y015329D01*
X011887Y015281D01*
X011924Y015231D01*
X011958Y015178D01*
X011989Y015124D01*
X012015Y015068D01*
X012039Y015010D01*
X012058Y014950D01*
X012074Y014890D01*
X012086Y014828D01*
X012094Y014767D01*
X012098Y014704D01*
X012098Y014642D01*
X012094Y014579D01*
X012086Y014518D01*
X012074Y014456D01*
X012058Y014396D01*
X012039Y014336D01*
X012015Y014278D01*
X011989Y014222D01*
X011958Y014168D01*
X011924Y014115D01*
X011887Y014065D01*
X011847Y014017D01*
X011804Y013972D01*
X011758Y013929D01*
X011710Y013890D01*
X011659Y013854D01*
X011606Y013821D01*
X011551Y013791D01*
X011494Y013765D01*
X011436Y013743D01*
X011376Y013725D01*
X011316Y013710D01*
X011254Y013699D01*
X011192Y013692D01*
X011130Y013689D01*
X011067Y013690D01*
X011005Y013695D01*
X010943Y013704D01*
X010882Y013717D01*
X010822Y013733D01*
X010763Y013754D01*
X010705Y013778D01*
X010649Y013806D01*
X010595Y013837D01*
X010543Y013871D01*
X010494Y013909D01*
X010446Y013950D01*
X010402Y013994D01*
X010360Y014040D01*
X010322Y014090D01*
X010286Y014141D01*
X010254Y014195D01*
X010226Y014250D01*
X010200Y014307D01*
X010179Y014366D01*
X010162Y014426D01*
X010148Y014487D01*
X010138Y014548D01*
X010132Y014611D01*
X010130Y014673D01*
X012810Y014696D02*
X013111Y014696D01*
X013111Y014471D02*
X013111Y014922D01*
X013271Y014922D02*
X013271Y014471D01*
X013571Y014471D01*
X013731Y014471D02*
X014031Y014471D01*
X014033Y014475D02*
X014184Y014625D01*
X014184Y014925D01*
X014283Y014850D02*
X015933Y014850D01*
X016157Y015450D02*
X015661Y015450D01*
X015556Y015450D01*
X014661Y015450D01*
X014556Y015450D01*
X014059Y015450D01*
X013883Y014925D02*
X013883Y014625D01*
X014033Y014475D01*
X013881Y014471D02*
X013881Y014922D01*
X013731Y014771D01*
X014344Y014925D02*
X014644Y014925D01*
X014494Y014925D02*
X014494Y014475D01*
X014283Y014150D02*
X015933Y014150D01*
X016157Y013550D02*
X015661Y013550D01*
X015556Y013550D01*
X014661Y013550D01*
X014556Y013550D01*
X014059Y013550D01*
X014154Y013938D02*
X014181Y013994D01*
X014212Y014048D01*
X014246Y014100D01*
X014283Y014150D01*
X014804Y014700D02*
X015104Y014700D01*
X015029Y014475D02*
X015029Y014925D01*
X014804Y014700D01*
X014283Y014850D02*
X014248Y014898D01*
X014215Y014948D01*
X014185Y014999D01*
X014158Y015053D01*
X014059Y015450D02*
X014058Y015514D01*
X014061Y015578D01*
X014068Y015642D01*
X014078Y015705D01*
X014093Y015767D01*
X014111Y015828D01*
X014133Y015889D01*
X014158Y015947D01*
X014059Y015450D02*
X014064Y015391D01*
X014071Y015333D01*
X014082Y015275D01*
X014097Y015218D01*
X014114Y015162D01*
X014134Y015107D01*
X014158Y015053D01*
X016157Y015450D02*
X016158Y015514D01*
X016155Y015578D01*
X016148Y015642D01*
X016138Y015705D01*
X016123Y015767D01*
X016105Y015828D01*
X016083Y015889D01*
X016058Y015947D01*
X016062Y015062D02*
X016035Y015006D01*
X016004Y014952D01*
X015970Y014900D01*
X015933Y014850D01*
X016058Y015947D02*
X016029Y016004D01*
X015996Y016060D01*
X015961Y016113D01*
X015921Y016164D01*
X015879Y016212D01*
X015834Y016258D01*
X015787Y016301D01*
X015737Y016341D01*
X015684Y016378D01*
X015629Y016411D01*
X015573Y016442D01*
X015514Y016468D01*
X015454Y016491D01*
X015393Y016511D01*
X015331Y016526D01*
X015268Y016538D01*
X015204Y016546D01*
X015140Y016550D01*
X015076Y016550D01*
X015012Y016546D01*
X014948Y016538D01*
X014885Y016526D01*
X014823Y016511D01*
X014762Y016491D01*
X014702Y016468D01*
X014643Y016442D01*
X014587Y016411D01*
X014532Y016378D01*
X014479Y016341D01*
X014429Y016301D01*
X014382Y016258D01*
X014337Y016212D01*
X014295Y016164D01*
X014255Y016113D01*
X014220Y016060D01*
X014187Y016004D01*
X014158Y015947D01*
X016157Y015450D02*
X016152Y015391D01*
X016145Y015333D01*
X016134Y015275D01*
X016119Y015218D01*
X016102Y015162D01*
X016082Y015107D01*
X016058Y015053D01*
X017633Y014675D02*
X017633Y014375D01*
X017783Y014225D01*
X017934Y014375D01*
X017934Y014675D01*
X018094Y014675D02*
X018394Y014675D01*
X018244Y014675D02*
X018244Y014225D01*
X018554Y014225D02*
X018854Y014525D01*
X018854Y014600D01*
X018779Y014675D01*
X018629Y014675D01*
X018554Y014600D01*
X018554Y014225D02*
X018854Y014225D01*
X017908Y012803D02*
X017935Y012749D01*
X017965Y012698D01*
X017998Y012648D01*
X018033Y012600D01*
X019683Y012600D01*
X019907Y013200D02*
X019411Y013200D01*
X019306Y013200D01*
X018411Y013200D01*
X018306Y013200D01*
X017809Y013200D01*
X019808Y013697D02*
X019833Y013639D01*
X019855Y013578D01*
X019873Y013517D01*
X019888Y013455D01*
X019898Y013392D01*
X019905Y013328D01*
X019908Y013264D01*
X019907Y013200D01*
X019812Y012812D02*
X019785Y012756D01*
X019754Y012702D01*
X019720Y012650D01*
X019683Y012600D01*
X019808Y013697D02*
X019779Y013754D01*
X019746Y013810D01*
X019711Y013863D01*
X019671Y013914D01*
X019629Y013962D01*
X019584Y014008D01*
X019537Y014051D01*
X019487Y014091D01*
X019434Y014128D01*
X019379Y014161D01*
X019323Y014192D01*
X019264Y014218D01*
X019204Y014241D01*
X019143Y014261D01*
X019081Y014276D01*
X019018Y014288D01*
X018954Y014296D01*
X018890Y014300D01*
X018826Y014300D01*
X018762Y014296D01*
X018698Y014288D01*
X018635Y014276D01*
X018573Y014261D01*
X018512Y014241D01*
X018452Y014218D01*
X018393Y014192D01*
X018337Y014161D01*
X018282Y014128D01*
X018229Y014091D01*
X018179Y014051D01*
X018132Y014008D01*
X018087Y013962D01*
X018045Y013914D01*
X018005Y013863D01*
X017970Y013810D01*
X017937Y013754D01*
X017908Y013697D01*
X017883Y013639D01*
X017861Y013578D01*
X017843Y013517D01*
X017828Y013455D01*
X017818Y013392D01*
X017811Y013328D01*
X017808Y013264D01*
X017809Y013200D01*
X017814Y013141D01*
X017821Y013083D01*
X017832Y013025D01*
X017847Y012968D01*
X017864Y012912D01*
X017884Y012857D01*
X017908Y012803D01*
X019808Y012803D02*
X019832Y012857D01*
X019852Y012912D01*
X019869Y012968D01*
X019884Y013025D01*
X019895Y013083D01*
X019902Y013141D01*
X019907Y013200D01*
X019907Y016300D02*
X019411Y016300D01*
X019306Y016300D01*
X018411Y016300D01*
X018306Y016300D01*
X017809Y016300D01*
X018033Y016900D02*
X019683Y016900D01*
X019718Y016852D01*
X019751Y016802D01*
X019781Y016751D01*
X019808Y016697D01*
X019907Y016300D02*
X019908Y016236D01*
X019905Y016172D01*
X019898Y016108D01*
X019888Y016045D01*
X019873Y015983D01*
X019855Y015922D01*
X019833Y015861D01*
X019808Y015803D01*
X019907Y016300D02*
X019902Y016359D01*
X019895Y016417D01*
X019884Y016475D01*
X019869Y016532D01*
X019852Y016588D01*
X019832Y016643D01*
X019808Y016697D01*
X017809Y016300D02*
X017808Y016236D01*
X017811Y016172D01*
X017818Y016108D01*
X017828Y016045D01*
X017843Y015983D01*
X017861Y015922D01*
X017883Y015861D01*
X017908Y015803D01*
X017904Y016688D02*
X017931Y016744D01*
X017962Y016798D01*
X017996Y016850D01*
X018033Y016900D01*
X017908Y015803D02*
X017937Y015746D01*
X017970Y015690D01*
X018005Y015637D01*
X018045Y015586D01*
X018087Y015538D01*
X018132Y015492D01*
X018179Y015449D01*
X018229Y015409D01*
X018282Y015372D01*
X018337Y015339D01*
X018393Y015308D01*
X018452Y015282D01*
X018512Y015259D01*
X018573Y015239D01*
X018635Y015224D01*
X018698Y015212D01*
X018762Y015204D01*
X018826Y015200D01*
X018890Y015200D01*
X018954Y015204D01*
X019018Y015212D01*
X019081Y015224D01*
X019143Y015239D01*
X019204Y015259D01*
X019264Y015282D01*
X019323Y015308D01*
X019379Y015339D01*
X019434Y015372D01*
X019487Y015409D01*
X019537Y015449D01*
X019584Y015492D01*
X019629Y015538D01*
X019671Y015586D01*
X019711Y015637D01*
X019746Y015690D01*
X019779Y015746D01*
X019808Y015803D01*
X017809Y016300D02*
X017814Y016359D01*
X017821Y016417D01*
X017832Y016475D01*
X017847Y016532D01*
X017864Y016588D01*
X017884Y016643D01*
X017908Y016697D01*
X019033Y017975D02*
X019184Y018125D01*
X019184Y018425D01*
X019344Y018425D02*
X019644Y018425D01*
X019494Y018425D02*
X019494Y017975D01*
X019804Y018050D02*
X019879Y017975D01*
X020029Y017975D01*
X020104Y018050D01*
X020104Y018125D01*
X020029Y018200D01*
X019954Y018200D01*
X020029Y018200D02*
X020104Y018275D01*
X020104Y018350D01*
X020029Y018425D01*
X019879Y018425D01*
X019804Y018350D01*
X019033Y017975D02*
X018883Y018125D01*
X018883Y018425D01*
X016364Y019495D02*
X016364Y019795D01*
X016214Y019945D01*
X016064Y019795D01*
X016064Y019495D01*
X016064Y019720D02*
X016364Y019720D01*
X015904Y019945D02*
X015603Y019945D01*
X015753Y019945D02*
X015753Y019495D01*
X012810Y014922D02*
X012810Y014471D01*
X014158Y013053D02*
X014187Y012996D01*
X014220Y012940D01*
X014255Y012887D01*
X014295Y012836D01*
X014337Y012788D01*
X014382Y012742D01*
X014429Y012699D01*
X014479Y012659D01*
X014532Y012622D01*
X014587Y012589D01*
X014643Y012558D01*
X014702Y012532D01*
X014762Y012509D01*
X014823Y012489D01*
X014885Y012474D01*
X014948Y012462D01*
X015012Y012454D01*
X015076Y012450D01*
X015140Y012450D01*
X015204Y012454D01*
X015268Y012462D01*
X015331Y012474D01*
X015393Y012489D01*
X015454Y012509D01*
X015514Y012532D01*
X015573Y012558D01*
X015629Y012589D01*
X015684Y012622D01*
X015737Y012659D01*
X015787Y012699D01*
X015834Y012742D01*
X015879Y012788D01*
X015921Y012836D01*
X015961Y012887D01*
X015996Y012940D01*
X016029Y012996D01*
X016058Y013053D01*
X016058Y013947D02*
X016031Y014001D01*
X016001Y014052D01*
X015968Y014102D01*
X015933Y014150D01*
X014059Y013550D02*
X014058Y013486D01*
X014061Y013422D01*
X014068Y013358D01*
X014078Y013295D01*
X014093Y013233D01*
X014111Y013172D01*
X014133Y013111D01*
X014158Y013053D01*
X014059Y013550D02*
X014064Y013609D01*
X014071Y013667D01*
X014082Y013725D01*
X014097Y013782D01*
X014114Y013838D01*
X014134Y013893D01*
X014158Y013947D01*
X016058Y013947D02*
X016082Y013893D01*
X016102Y013838D01*
X016119Y013782D01*
X016134Y013725D01*
X016145Y013667D01*
X016152Y013609D01*
X016157Y013550D01*
X016158Y013486D01*
X016155Y013422D01*
X016148Y013358D01*
X016138Y013295D01*
X016123Y013233D01*
X016105Y013172D01*
X016083Y013111D01*
X016058Y013053D01*
X019808Y008315D02*
X019733Y008240D01*
X019733Y008090D01*
X019808Y008015D01*
X019883Y008015D01*
X019958Y008090D01*
X019958Y008315D01*
X020108Y008315D02*
X019808Y008315D01*
X020108Y008315D02*
X020183Y008240D01*
X020183Y008090D01*
X020108Y008015D01*
X020108Y007854D02*
X020183Y007779D01*
X020183Y007629D01*
X020108Y007554D01*
X019808Y007554D01*
X019733Y007629D01*
X019733Y007779D01*
X019808Y007854D01*
X019883Y007240D02*
X019808Y007165D01*
X019808Y006940D01*
X019958Y006940D01*
X020033Y007015D01*
X020033Y007165D01*
X019958Y007240D01*
X019883Y007240D01*
X019658Y007090D02*
X019808Y006940D01*
X019658Y007090D02*
X019583Y007240D01*
X019583Y006779D02*
X019583Y006479D01*
X019583Y006629D02*
X020033Y006629D01*
X019883Y006319D02*
X019583Y006319D01*
X019583Y006019D02*
X019883Y006019D01*
X020033Y006169D01*
X019883Y006319D01*
X017920Y005421D02*
X017864Y005448D01*
X017810Y005479D01*
X017758Y005513D01*
X017708Y005550D01*
X017708Y007200D01*
X018308Y007424D02*
X018308Y006928D01*
X018308Y006822D01*
X018308Y005928D01*
X018308Y005822D01*
X018308Y005326D01*
X018249Y005331D01*
X018191Y005338D01*
X018133Y005349D01*
X018076Y005364D01*
X018020Y005381D01*
X017965Y005401D01*
X017911Y005425D01*
X018805Y005425D02*
X018862Y005454D01*
X018918Y005487D01*
X018971Y005522D01*
X019022Y005562D01*
X019070Y005604D01*
X019116Y005649D01*
X019159Y005696D01*
X019199Y005746D01*
X019236Y005799D01*
X019269Y005854D01*
X019300Y005910D01*
X019326Y005969D01*
X019349Y006029D01*
X019369Y006090D01*
X019384Y006152D01*
X019396Y006215D01*
X019404Y006279D01*
X019408Y006343D01*
X019408Y006407D01*
X019404Y006471D01*
X019396Y006535D01*
X019384Y006598D01*
X019369Y006660D01*
X019349Y006721D01*
X019326Y006781D01*
X019300Y006840D01*
X019269Y006896D01*
X019236Y006951D01*
X019199Y007004D01*
X019159Y007054D01*
X019116Y007101D01*
X019070Y007146D01*
X019022Y007188D01*
X018971Y007228D01*
X018918Y007263D01*
X018862Y007296D01*
X018805Y007325D01*
X017911Y007325D02*
X017857Y007298D01*
X017806Y007268D01*
X017756Y007235D01*
X017708Y007200D01*
X018308Y005326D02*
X018372Y005325D01*
X018436Y005328D01*
X018500Y005335D01*
X018563Y005345D01*
X018625Y005360D01*
X018686Y005378D01*
X018747Y005400D01*
X018805Y005425D01*
X018308Y007424D02*
X018249Y007419D01*
X018191Y007412D01*
X018133Y007401D01*
X018076Y007386D01*
X018020Y007369D01*
X017965Y007349D01*
X017911Y007325D01*
X018308Y007424D02*
X018372Y007425D01*
X018436Y007422D01*
X018500Y007415D01*
X018563Y007405D01*
X018625Y007390D01*
X018686Y007372D01*
X018747Y007350D01*
X018805Y007325D01*
X015346Y004437D02*
X015346Y003059D01*
X015149Y002862D02*
X015151Y002889D01*
X015157Y002916D01*
X015166Y002942D01*
X015179Y002966D01*
X015195Y002989D01*
X015214Y003008D01*
X015236Y003025D01*
X015260Y003039D01*
X015285Y003049D01*
X015312Y003056D01*
X015339Y003059D01*
X015367Y003058D01*
X015394Y003053D01*
X015420Y003045D01*
X015444Y003033D01*
X015467Y003017D01*
X015488Y002999D01*
X015505Y002978D01*
X015520Y002954D01*
X015531Y002929D01*
X015539Y002903D01*
X015543Y002876D01*
X015543Y002848D01*
X015539Y002821D01*
X015531Y002795D01*
X015520Y002770D01*
X015505Y002746D01*
X015488Y002725D01*
X015467Y002707D01*
X015445Y002691D01*
X015420Y002679D01*
X015394Y002671D01*
X015367Y002666D01*
X015339Y002665D01*
X015312Y002668D01*
X015285Y002675D01*
X015260Y002685D01*
X015236Y002699D01*
X015214Y002716D01*
X015195Y002735D01*
X015179Y002758D01*
X015166Y002782D01*
X015157Y002808D01*
X015151Y002835D01*
X015149Y002862D01*
X013834Y002647D02*
X013534Y002647D01*
X013374Y002572D02*
X013374Y002497D01*
X013299Y002422D01*
X013074Y002422D01*
X013074Y002873D01*
X013299Y002873D01*
X013374Y002797D01*
X013374Y002722D01*
X013299Y002647D01*
X013074Y002647D01*
X013299Y002647D02*
X013374Y002572D01*
X013684Y002497D02*
X013684Y002797D01*
X013378Y001681D02*
X013380Y001708D01*
X013386Y001735D01*
X013395Y001761D01*
X013408Y001785D01*
X013424Y001808D01*
X013443Y001827D01*
X013465Y001844D01*
X013489Y001858D01*
X013514Y001868D01*
X013541Y001875D01*
X013568Y001878D01*
X013596Y001877D01*
X013623Y001872D01*
X013649Y001864D01*
X013673Y001852D01*
X013696Y001836D01*
X013717Y001818D01*
X013734Y001797D01*
X013749Y001773D01*
X013760Y001748D01*
X013768Y001722D01*
X013772Y001695D01*
X013772Y001667D01*
X013768Y001640D01*
X013760Y001614D01*
X013749Y001589D01*
X013734Y001565D01*
X013717Y001544D01*
X013696Y001526D01*
X013674Y001510D01*
X013649Y001498D01*
X013623Y001490D01*
X013596Y001485D01*
X013568Y001484D01*
X013541Y001487D01*
X013514Y001494D01*
X013489Y001504D01*
X013465Y001518D01*
X013443Y001535D01*
X013424Y001554D01*
X013408Y001577D01*
X013395Y001601D01*
X013386Y001627D01*
X013380Y001654D01*
X013378Y001681D01*
X011606Y002862D02*
X011608Y002889D01*
X011614Y002916D01*
X011623Y002942D01*
X011636Y002966D01*
X011652Y002989D01*
X011671Y003008D01*
X011693Y003025D01*
X011717Y003039D01*
X011742Y003049D01*
X011769Y003056D01*
X011796Y003059D01*
X011824Y003058D01*
X011851Y003053D01*
X011877Y003045D01*
X011901Y003033D01*
X011924Y003017D01*
X011945Y002999D01*
X011962Y002978D01*
X011977Y002954D01*
X011988Y002929D01*
X011996Y002903D01*
X012000Y002876D01*
X012000Y002848D01*
X011996Y002821D01*
X011988Y002795D01*
X011977Y002770D01*
X011962Y002746D01*
X011945Y002725D01*
X011924Y002707D01*
X011902Y002691D01*
X011877Y002679D01*
X011851Y002671D01*
X011824Y002666D01*
X011796Y002665D01*
X011769Y002668D01*
X011742Y002675D01*
X011717Y002685D01*
X011693Y002699D01*
X011671Y002716D01*
X011652Y002735D01*
X011636Y002758D01*
X011623Y002782D01*
X011614Y002808D01*
X011608Y002835D01*
X011606Y002862D01*
X011803Y003059D02*
X011803Y004437D01*
X013783Y005575D02*
X014233Y005575D01*
X014233Y005875D01*
X014233Y006035D02*
X014233Y006336D01*
X014233Y006186D02*
X013783Y006186D01*
X013933Y006035D01*
X017027Y003550D02*
X017027Y003250D01*
X017102Y003175D01*
X017252Y003175D01*
X017327Y003250D01*
X017487Y003175D02*
X017788Y003175D01*
X017638Y003175D02*
X017638Y003625D01*
X017487Y003475D01*
X017327Y003550D02*
X017252Y003625D01*
X017102Y003625D01*
X017027Y003550D01*
X017948Y003550D02*
X017948Y003250D01*
X018248Y003550D01*
X018248Y003250D01*
X018173Y003175D01*
X018023Y003175D01*
X017948Y003250D01*
X017948Y003550D02*
X018023Y003625D01*
X018173Y003625D01*
X018248Y003550D01*
D12*
X005658Y005000D03*
X002658Y005000D03*
D13*
X003608Y011750D02*
X003608Y012100D01*
X003608Y014400D02*
X003608Y014750D01*
X002108Y016000D02*
X002108Y016350D01*
X003608Y017250D02*
X003958Y017250D01*
X003958Y018250D02*
X003608Y018250D01*
X003608Y019250D02*
X003958Y019250D01*
X002108Y019000D02*
X002108Y018650D01*
X006258Y018250D02*
X006608Y018250D01*
X006608Y019250D02*
X006258Y019250D01*
X006258Y017250D02*
X006608Y017250D01*
X011358Y013500D02*
X011358Y013300D01*
X011358Y011700D02*
X011358Y011500D01*
X013108Y011800D02*
X013108Y012000D01*
X013108Y010200D02*
X013108Y010000D01*
X012858Y007750D02*
X012858Y007400D01*
X013858Y007400D02*
X013858Y007750D01*
X013858Y005100D02*
X013858Y004750D01*
X012858Y004750D02*
X012858Y005100D01*
X019858Y005000D02*
X019858Y005350D01*
X019858Y007650D02*
X019858Y008000D01*
D14*
X019858Y007575D03*
X019858Y005425D03*
X013858Y005175D03*
X012858Y005175D03*
X012858Y007325D03*
X013858Y007325D03*
X003608Y012175D03*
X003608Y014325D03*
D15*
X003123Y013830D02*
X003181Y013772D01*
X003181Y013714D01*
X003123Y013655D01*
X003181Y013597D01*
X003181Y013538D01*
X003123Y013480D01*
X003006Y013480D01*
X002947Y013538D01*
X002822Y013480D02*
X002705Y013597D01*
X002763Y013597D02*
X002588Y013597D01*
X002588Y013480D02*
X002588Y013830D01*
X002763Y013830D01*
X002822Y013772D01*
X002822Y013655D01*
X002763Y013597D01*
X002947Y013772D02*
X003006Y013830D01*
X003123Y013830D01*
X003123Y013655D02*
X003064Y013655D01*
X011888Y013336D02*
X011888Y013219D01*
X011946Y013161D01*
X012005Y013161D01*
X012063Y013219D01*
X012063Y013336D01*
X012121Y013394D01*
X012180Y013394D01*
X012238Y013336D01*
X012238Y013219D01*
X012180Y013161D01*
X012121Y013161D01*
X012063Y013219D01*
X012063Y013336D02*
X012005Y013394D01*
X011946Y013394D01*
X011888Y013336D01*
X011946Y013035D02*
X012063Y013035D01*
X012121Y012977D01*
X012121Y012802D01*
X012121Y012919D02*
X012238Y013035D01*
X012238Y012802D02*
X011888Y012802D01*
X011888Y012977D01*
X011946Y013035D01*
X013588Y011626D02*
X013588Y011509D01*
X013646Y011451D01*
X013588Y011626D02*
X013646Y011684D01*
X013705Y011684D01*
X013938Y011451D01*
X013938Y011684D01*
X013938Y011325D02*
X013938Y011092D01*
X013588Y011092D01*
X013696Y006644D02*
X013638Y006586D01*
X013638Y006469D01*
X013696Y006411D01*
X013930Y006411D01*
X013696Y006644D01*
X013930Y006644D01*
X013988Y006586D01*
X013988Y006469D01*
X013930Y006411D01*
X013988Y006285D02*
X013988Y006052D01*
X013988Y006169D02*
X013638Y006169D01*
X013755Y006052D01*
X013813Y005926D02*
X013871Y005868D01*
X013871Y005693D01*
X013871Y005809D02*
X013988Y005926D01*
X013813Y005926D02*
X013696Y005926D01*
X013638Y005868D01*
X013638Y005693D01*
X013988Y005693D01*
X012988Y006052D02*
X012638Y006052D01*
X012638Y006227D01*
X012696Y006285D01*
X012813Y006285D01*
X012871Y006227D01*
X012871Y006052D01*
X012871Y006169D02*
X012988Y006285D01*
X012930Y006411D02*
X012988Y006469D01*
X012988Y006586D01*
X012930Y006644D01*
X012696Y006644D01*
X012638Y006586D01*
X012638Y006469D01*
X012696Y006411D01*
X012755Y006411D01*
X012813Y006469D01*
X012813Y006644D01*
X020388Y006618D02*
X020388Y006443D01*
X020738Y006443D01*
X020621Y006443D02*
X020621Y006618D01*
X020563Y006676D01*
X020446Y006676D01*
X020388Y006618D01*
X020505Y006802D02*
X020388Y006919D01*
X020738Y006919D01*
X020738Y007035D02*
X020738Y006802D01*
X020738Y006676D02*
X020621Y006559D01*
X020680Y007161D02*
X020738Y007219D01*
X020738Y007336D01*
X020680Y007394D01*
X020621Y007394D01*
X020563Y007336D01*
X020563Y007278D01*
X020563Y007336D02*
X020505Y007394D01*
X020446Y007394D01*
X020388Y007336D01*
X020388Y007219D01*
X020446Y007161D01*
D16*
X018608Y009550D03*
X009108Y016550D03*
D17*
X010372Y015677D02*
X011872Y015677D01*
X008358Y011500D02*
X007358Y011500D01*
X006358Y011500D01*
X006108Y010750D02*
X005108Y010750D01*
X004108Y010750D01*
X005108Y010750D02*
X005108Y010500D01*
X005108Y010750D02*
X005108Y011000D01*
X007358Y011250D02*
X007358Y011500D01*
X007358Y011750D01*
D18*
X007116Y011745D02*
X007016Y011745D01*
X007016Y011670D01*
X007066Y011695D01*
X007091Y011695D01*
X007116Y011670D01*
X007116Y011620D01*
X007091Y011595D01*
X007041Y011595D01*
X007016Y011620D01*
X006969Y011620D02*
X006944Y011595D01*
X006894Y011595D01*
X006869Y011620D01*
X006869Y011720D01*
X006894Y011745D01*
X006944Y011745D01*
X006969Y011720D01*
X005616Y010995D02*
X005566Y010970D01*
X005516Y010920D01*
X005591Y010920D01*
X005616Y010895D01*
X005616Y010870D01*
X005591Y010845D01*
X005541Y010845D01*
X005516Y010870D01*
X005516Y010920D01*
X005469Y010870D02*
X005444Y010845D01*
X005394Y010845D01*
X005369Y010870D01*
X005369Y010970D01*
X005394Y010995D01*
X005444Y010995D01*
X005469Y010970D01*
D19*
X011608Y017250D03*
X011610Y018610D03*
X010610Y018610D03*
X012787Y018630D03*
X013787Y018630D03*
X016108Y018750D03*
X013579Y001677D03*
X008654Y001677D03*
D20*
X017383Y003950D02*
X017383Y004250D01*
X017383Y004550D01*
X017583Y004550D02*
X017583Y004250D01*
X017583Y003950D01*
X011872Y015677D02*
X011926Y015634D01*
X011978Y015588D01*
X012027Y015539D01*
X012074Y015487D01*
X012117Y015433D01*
X012158Y015377D01*
X012195Y015318D01*
X012229Y015258D01*
X012259Y015195D01*
X012286Y015132D01*
X012310Y015066D01*
X012330Y015000D01*
X012346Y014932D01*
X012358Y014864D01*
X012366Y014795D01*
X012371Y014726D01*
X012372Y014656D01*
X012369Y014587D01*
X012362Y014518D01*
X012351Y014450D01*
X012337Y014382D01*
X012318Y014315D01*
X012296Y014249D01*
X012271Y014184D01*
X012242Y014121D01*
X012209Y014060D01*
X012173Y014001D01*
X012134Y013944D01*
X012092Y013888D01*
X012047Y013836D01*
X011999Y013786D01*
X011948Y013739D01*
X011894Y013694D01*
X011839Y013653D01*
X011781Y013615D01*
X011721Y013580D01*
X011659Y013548D01*
X011596Y013520D01*
X011531Y013496D01*
X011465Y013475D01*
X011397Y013458D01*
X011329Y013444D01*
X011260Y013435D01*
X011191Y013429D01*
X011122Y013427D01*
X011053Y013429D01*
X010984Y013435D01*
X010915Y013444D01*
X010847Y013458D01*
X010779Y013475D01*
X010713Y013496D01*
X010648Y013520D01*
X010585Y013548D01*
X010523Y013580D01*
X010463Y013615D01*
X010405Y013653D01*
X010350Y013694D01*
X010296Y013739D01*
X010245Y013786D01*
X010197Y013836D01*
X010152Y013888D01*
X010110Y013944D01*
X010071Y014001D01*
X010035Y014060D01*
X010002Y014121D01*
X009973Y014184D01*
X009948Y014249D01*
X009926Y014315D01*
X009907Y014382D01*
X009893Y014450D01*
X009882Y014518D01*
X009875Y014587D01*
X009872Y014656D01*
X009873Y014726D01*
X009878Y014795D01*
X009886Y014864D01*
X009898Y014932D01*
X009914Y015000D01*
X009934Y015066D01*
X009958Y015132D01*
X009985Y015195D01*
X010015Y015258D01*
X010049Y015318D01*
X010086Y015377D01*
X010127Y015433D01*
X010170Y015487D01*
X010217Y015539D01*
X010266Y015588D01*
X010318Y015634D01*
X010372Y015677D01*
X005708Y016250D02*
X005108Y016250D01*
X005108Y016750D01*
X005608Y016750D01*
X005108Y016250D02*
X005108Y015750D01*
X004608Y015750D01*
X004108Y015750D02*
X004108Y016250D01*
X004108Y016750D01*
X005108Y016250D01*
X004108Y015750D01*
X004108Y016250D02*
X003508Y016250D01*
D21*
X011358Y013250D03*
X011358Y011750D03*
X013108Y011750D03*
X013108Y010250D03*
D22*
X012310Y009888D02*
X012210Y009888D01*
X012210Y008888D01*
X012310Y008888D01*
X011610Y008888D02*
X011610Y009888D01*
X010610Y009888D01*
X010610Y008888D01*
X011610Y008888D01*
X010860Y009388D02*
X010862Y009419D01*
X010868Y009450D01*
X010878Y009480D01*
X010891Y009508D01*
X010908Y009535D01*
X010928Y009559D01*
X010951Y009581D01*
X010976Y009599D01*
X011004Y009614D01*
X011033Y009626D01*
X011063Y009634D01*
X011094Y009638D01*
X011126Y009638D01*
X011157Y009634D01*
X011187Y009626D01*
X011216Y009614D01*
X011244Y009599D01*
X011269Y009581D01*
X011292Y009559D01*
X011312Y009535D01*
X011329Y009508D01*
X011342Y009480D01*
X011352Y009450D01*
X011358Y009419D01*
X011360Y009388D01*
X011358Y009357D01*
X011352Y009326D01*
X011342Y009296D01*
X011329Y009268D01*
X011312Y009241D01*
X011292Y009217D01*
X011269Y009195D01*
X011244Y009177D01*
X011216Y009162D01*
X011187Y009150D01*
X011157Y009142D01*
X011126Y009138D01*
X011094Y009138D01*
X011063Y009142D01*
X011033Y009150D01*
X011004Y009162D01*
X010976Y009177D01*
X010951Y009195D01*
X010928Y009217D01*
X010908Y009241D01*
X010891Y009268D01*
X010878Y009296D01*
X010868Y009326D01*
X010862Y009357D01*
X010860Y009388D01*
X010010Y008938D02*
X009910Y008938D01*
X010010Y008938D02*
X010010Y009888D01*
X009910Y009888D01*
D23*
X004458Y017250D03*
X005758Y018250D03*
X004458Y019250D03*
D24*
X004083Y019250D03*
X004083Y018250D03*
X004083Y017250D03*
X006133Y017250D03*
X006133Y018250D03*
X006133Y019250D03*
D25*
X002108Y016850D03*
D26*
X002108Y016475D03*
X002108Y018525D03*
D27*
X008728Y005300D02*
X008728Y004700D01*
X008978Y004700D02*
X008978Y005300D01*
D28*
X014858Y005150D02*
X014858Y004750D01*
X014858Y008350D02*
X014858Y008750D01*
D29*
X014858Y008170D03*
X014858Y005330D03*
M02*
