G75*
G70*
%OFA0B0*%
%FSLAX24Y24*%
%IPPOS*%
%LPD*%
%AMOC8*
5,1,8,0,0,1.08239X$1,22.5*
%
%ADD10C,0.0000*%
%ADD11C,0.0039*%
D10*
X001370Y000500D02*
X020858Y000500D01*
X020858Y019791D01*
X001370Y019791D01*
X001370Y000500D01*
X010130Y005815D02*
X010132Y005877D01*
X010138Y005940D01*
X010148Y006001D01*
X010162Y006062D01*
X010179Y006122D01*
X010200Y006181D01*
X010226Y006238D01*
X010254Y006293D01*
X010286Y006347D01*
X010322Y006398D01*
X010360Y006448D01*
X010402Y006494D01*
X010446Y006538D01*
X010494Y006579D01*
X010543Y006617D01*
X010595Y006651D01*
X010649Y006682D01*
X010705Y006710D01*
X010763Y006734D01*
X010822Y006755D01*
X010882Y006771D01*
X010943Y006784D01*
X011005Y006793D01*
X011067Y006798D01*
X011130Y006799D01*
X011192Y006796D01*
X011254Y006789D01*
X011316Y006778D01*
X011376Y006763D01*
X011436Y006745D01*
X011494Y006723D01*
X011551Y006697D01*
X011606Y006667D01*
X011659Y006634D01*
X011710Y006598D01*
X011758Y006559D01*
X011804Y006516D01*
X011847Y006471D01*
X011887Y006423D01*
X011924Y006373D01*
X011958Y006320D01*
X011989Y006266D01*
X012015Y006210D01*
X012039Y006152D01*
X012058Y006092D01*
X012074Y006032D01*
X012086Y005970D01*
X012094Y005909D01*
X012098Y005846D01*
X012098Y005784D01*
X012094Y005721D01*
X012086Y005660D01*
X012074Y005598D01*
X012058Y005538D01*
X012039Y005478D01*
X012015Y005420D01*
X011989Y005364D01*
X011958Y005310D01*
X011924Y005257D01*
X011887Y005207D01*
X011847Y005159D01*
X011804Y005114D01*
X011758Y005071D01*
X011710Y005032D01*
X011659Y004996D01*
X011606Y004963D01*
X011551Y004933D01*
X011494Y004907D01*
X011436Y004885D01*
X011376Y004867D01*
X011316Y004852D01*
X011254Y004841D01*
X011192Y004834D01*
X011130Y004831D01*
X011067Y004832D01*
X011005Y004837D01*
X010943Y004846D01*
X010882Y004859D01*
X010822Y004875D01*
X010763Y004896D01*
X010705Y004920D01*
X010649Y004948D01*
X010595Y004979D01*
X010543Y005013D01*
X010494Y005051D01*
X010446Y005092D01*
X010402Y005136D01*
X010360Y005182D01*
X010322Y005232D01*
X010286Y005283D01*
X010254Y005337D01*
X010226Y005392D01*
X010200Y005449D01*
X010179Y005508D01*
X010162Y005568D01*
X010148Y005629D01*
X010138Y005690D01*
X010132Y005753D01*
X010130Y005815D01*
D11*
X010132Y005877D01*
X010138Y005940D01*
X010148Y006001D01*
X010162Y006062D01*
X010179Y006122D01*
X010200Y006181D01*
X010226Y006238D01*
X010254Y006293D01*
X010286Y006347D01*
X010322Y006398D01*
X010360Y006448D01*
X010402Y006494D01*
X010446Y006538D01*
X010494Y006579D01*
X010543Y006617D01*
X010595Y006651D01*
X010649Y006682D01*
X010705Y006710D01*
X010763Y006734D01*
X010822Y006755D01*
X010882Y006771D01*
X010943Y006784D01*
X011005Y006793D01*
X011067Y006798D01*
X011130Y006799D01*
X011192Y006796D01*
X011254Y006789D01*
X011316Y006778D01*
X011376Y006763D01*
X011436Y006745D01*
X011494Y006723D01*
X011551Y006697D01*
X011606Y006667D01*
X011659Y006634D01*
X011710Y006598D01*
X011758Y006559D01*
X011804Y006516D01*
X011847Y006471D01*
X011887Y006423D01*
X011924Y006373D01*
X011958Y006320D01*
X011989Y006266D01*
X012015Y006210D01*
X012039Y006152D01*
X012058Y006092D01*
X012074Y006032D01*
X012086Y005970D01*
X012094Y005909D01*
X012098Y005846D01*
X012098Y005784D01*
X012094Y005721D01*
X012086Y005660D01*
X012074Y005598D01*
X012058Y005538D01*
X012039Y005478D01*
X012015Y005420D01*
X011989Y005364D01*
X011958Y005310D01*
X011924Y005257D01*
X011887Y005207D01*
X011847Y005159D01*
X011804Y005114D01*
X011758Y005071D01*
X011710Y005032D01*
X011659Y004996D01*
X011606Y004963D01*
X011551Y004933D01*
X011494Y004907D01*
X011436Y004885D01*
X011376Y004867D01*
X011316Y004852D01*
X011254Y004841D01*
X011192Y004834D01*
X011130Y004831D01*
X011067Y004832D01*
X011005Y004837D01*
X010943Y004846D01*
X010882Y004859D01*
X010822Y004875D01*
X010763Y004896D01*
X010705Y004920D01*
X010649Y004948D01*
X010595Y004979D01*
X010543Y005013D01*
X010494Y005051D01*
X010446Y005092D01*
X010402Y005136D01*
X010360Y005182D01*
X010322Y005232D01*
X010286Y005283D01*
X010254Y005337D01*
X010226Y005392D01*
X010200Y005449D01*
X010179Y005508D01*
X010162Y005568D01*
X010148Y005629D01*
X010138Y005690D01*
X010132Y005753D01*
X010130Y005815D01*
M02*
