G75*
G70*
%OFA0B0*%
%FSLAX24Y24*%
%IPPOS*%
%LPD*%
%AMOC8*
5,1,8,0,0,1.08239X$1,22.5*
%
%ADD10C,0.0832*%
%ADD11OC8,0.0832*%
%ADD12C,0.0832*%
%ADD13R,0.0591X0.0512*%
%ADD14R,0.0630X0.0512*%
%ADD15R,0.0709X0.0551*%
%ADD16R,0.0472X0.0709*%
%ADD17C,0.0079*%
%ADD18C,0.0866*%
%ADD19C,0.0912*%
%ADD20C,0.0906*%
%ADD21OC8,0.0912*%
%ADD22R,0.0551X0.0709*%
%ADD23R,0.0866X0.0236*%
%ADD24R,0.0512X0.0630*%
%ADD25R,0.0945X0.0945*%
%ADD26C,0.1181*%
%ADD27OC8,0.1181*%
%ADD28R,0.0630X0.0460*%
%ADD29R,0.0460X0.0630*%
%ADD30C,0.0240*%
%ADD31C,0.0100*%
%ADD32R,0.0906X0.0906*%
D10*
X002608Y006084D02*
X002608Y006916D01*
X003608Y006916D02*
X003608Y006084D01*
X004608Y006084D02*
X004608Y006916D01*
X005608Y006916D02*
X005608Y006084D01*
X006608Y006084D02*
X006608Y006916D01*
X007608Y006916D02*
X007608Y006084D01*
X008608Y006084D02*
X008608Y006916D01*
X008608Y009084D02*
X008608Y009916D01*
X007608Y009916D02*
X007608Y009084D01*
X006608Y009084D02*
X006608Y009916D01*
X005608Y009916D02*
X005608Y009084D01*
X004608Y009084D02*
X004608Y009916D01*
X003608Y009916D02*
X003608Y009084D01*
X002608Y009084D02*
X002608Y009916D01*
X007358Y014334D02*
X007358Y015166D01*
X008358Y015166D02*
X008358Y014334D01*
X009358Y014334D02*
X009358Y015166D01*
X007024Y017250D02*
X006192Y017250D01*
X006192Y018250D02*
X007024Y018250D01*
X007024Y019250D02*
X006192Y019250D01*
X004024Y019250D02*
X003192Y019250D01*
X003192Y018250D02*
X004024Y018250D01*
X004024Y017250D02*
X003192Y017250D01*
X002108Y016416D02*
X002108Y015584D01*
X002108Y018584D02*
X002108Y019416D01*
X014108Y015916D02*
X014108Y015084D01*
X015108Y015084D02*
X015108Y015916D01*
X016108Y015916D02*
X016108Y015084D01*
X016108Y013916D02*
X016108Y013084D01*
X015108Y013084D02*
X015108Y013916D01*
X014108Y013916D02*
X014108Y013084D01*
X017858Y012834D02*
X017858Y013666D01*
X018858Y013666D02*
X018858Y012834D01*
X019858Y012834D02*
X019858Y013666D01*
X019858Y015834D02*
X019858Y016666D01*
X018858Y016666D02*
X018858Y015834D01*
X017858Y015834D02*
X017858Y016666D01*
X017942Y007375D02*
X018774Y007375D01*
X018774Y006375D02*
X017942Y006375D01*
X017942Y005375D02*
X018774Y005375D01*
D11*
X019858Y005000D03*
X017983Y004250D03*
X016983Y004250D03*
X014858Y004750D03*
X013858Y004750D03*
X012858Y004750D03*
X012858Y007750D03*
X013858Y007750D03*
X014858Y008750D03*
X013108Y010000D03*
X011358Y011500D03*
X013108Y012000D03*
X011358Y013500D03*
X011122Y014177D03*
X011122Y015177D03*
X009108Y016250D03*
X006108Y016250D03*
X003608Y014750D03*
X003108Y016250D03*
X003608Y011750D03*
X002358Y005000D03*
X005158Y005000D03*
X008358Y005000D03*
X009358Y005000D03*
X019858Y008000D03*
D12*
X009108Y017250D03*
X006558Y005000D03*
X003358Y005000D03*
D13*
X003608Y003124D03*
X003608Y002376D03*
X005358Y002376D03*
X005358Y003124D03*
X002608Y008126D03*
X002608Y008874D03*
X008108Y016126D03*
X008108Y016874D03*
X019858Y009874D03*
X019858Y009126D03*
D14*
X008358Y012876D03*
X008358Y013624D03*
X003608Y008874D03*
X003608Y008126D03*
D15*
X002608Y011581D03*
X002608Y012919D03*
X002108Y016831D03*
X002108Y018169D03*
X007608Y012919D03*
X007608Y011581D03*
D16*
X007608Y008965D03*
X007608Y007785D03*
X004618Y007202D03*
X004618Y008383D03*
X016108Y016410D03*
X016108Y017590D03*
X017858Y017410D03*
X017858Y018590D03*
D17*
X005307Y000500D02*
X001370Y000500D01*
X001370Y004437D01*
X001370Y015854D02*
X001370Y019791D01*
X005307Y019791D01*
X016921Y019791D02*
X020858Y019791D01*
X020858Y015854D01*
X020858Y004437D02*
X020858Y000500D01*
X016921Y000500D01*
D18*
X007008Y010750D03*
X005558Y011500D03*
X003308Y010750D03*
X009258Y011500D03*
D19*
X010220Y011124D02*
X010220Y010212D01*
X010220Y008564D02*
X010220Y007652D01*
X012000Y007652D02*
X012000Y008564D01*
X012000Y010212D02*
X012000Y011124D01*
X011610Y018154D02*
X011610Y019066D01*
X010610Y019066D02*
X010610Y018154D01*
X012787Y018174D02*
X012787Y019086D01*
X013787Y019086D02*
X013787Y018174D01*
D20*
X012110Y009388D03*
X010110Y009388D03*
X015858Y009250D03*
X015858Y004250D03*
X015339Y002854D03*
X017983Y001125D03*
X011799Y002868D03*
X010433Y002862D03*
X006890Y002862D03*
D21*
X008654Y001677D03*
X013579Y001677D03*
X011608Y017250D03*
X016108Y018750D03*
D22*
X015278Y012000D03*
X013939Y012000D03*
X005778Y017250D03*
X005778Y018250D03*
X005778Y019250D03*
X004439Y019250D03*
X004439Y018250D03*
X004439Y017250D03*
D23*
X013835Y007000D03*
X013835Y006500D03*
X013835Y006000D03*
X013835Y005500D03*
X015882Y005500D03*
X015882Y006000D03*
X015882Y006500D03*
X015882Y007000D03*
D24*
X016734Y008000D03*
X017482Y008000D03*
X017482Y009250D03*
X016734Y009250D03*
D25*
X017474Y010500D03*
X015742Y010500D03*
D26*
X018608Y010450D03*
D27*
X018608Y009050D03*
D28*
X018858Y011450D03*
X018858Y012050D03*
X016108Y012050D03*
X016108Y011450D03*
X019858Y006800D03*
X019858Y006200D03*
D29*
X013158Y009250D03*
X012558Y009250D03*
X018058Y014750D03*
X018658Y014750D03*
D30*
X018858Y016250D01*
X018858Y018000D01*
X017358Y018000D01*
X016608Y017000D01*
X015608Y017000D01*
X015108Y016750D01*
X013858Y016750D01*
X012858Y016000D01*
X012858Y014000D01*
X011858Y012750D01*
X010608Y012750D01*
X009358Y014750D01*
X009108Y016250D01*
X009108Y017250D02*
X008108Y016874D01*
X007858Y016750D01*
X007608Y016750D01*
X006608Y015500D01*
X004358Y015500D01*
X003608Y014750D01*
X005108Y015000D02*
X006608Y015000D01*
X006608Y013750D01*
X007608Y012919D01*
X007867Y012904D01*
X008358Y012876D01*
X008358Y013624D02*
X008358Y014750D01*
X007358Y014750D02*
X007608Y015750D01*
X008108Y016126D01*
X007858Y017750D02*
X006608Y017250D01*
X005778Y017250D01*
X006608Y017250D02*
X006108Y016250D01*
X005108Y015000D02*
X003093Y012904D01*
X002608Y012919D01*
X003608Y011750D02*
X004608Y010250D01*
X004608Y009500D01*
X004618Y008383D01*
X005358Y008375D01*
X008608Y008375D01*
X008608Y009500D01*
X007608Y009500D02*
X007858Y010500D01*
X009258Y011500D01*
X007608Y011581D01*
X006858Y011150D02*
X006858Y012250D01*
X012108Y012250D01*
X013358Y013500D01*
X014108Y013500D01*
X014108Y015500D01*
X015108Y015500D02*
X015108Y016750D01*
X016108Y016410D02*
X016108Y015500D01*
X016108Y013500D01*
X015108Y013500D02*
X015278Y012000D01*
X016108Y012050D01*
X016108Y011450D02*
X017308Y011450D01*
X017658Y012050D01*
X018858Y012050D01*
X018858Y013250D01*
X019858Y013250D02*
X019858Y016250D01*
X019858Y017625D01*
X018858Y018000D02*
X019108Y018500D01*
X020608Y018500D01*
X020608Y009126D01*
X019858Y009126D01*
X019858Y008000D01*
X018358Y007375D01*
X017482Y008000D01*
X016734Y008000D02*
X016734Y009250D01*
X015858Y009250D01*
X014858Y008750D02*
X014858Y007750D01*
X015608Y007000D01*
X015882Y007000D01*
X016358Y007000D01*
X017858Y006250D01*
X018358Y006375D01*
X018358Y005375D02*
X017858Y005500D01*
X016358Y006500D01*
X015882Y006500D01*
X015882Y006000D02*
X016358Y006000D01*
X017233Y005125D01*
X017233Y005000D01*
X017983Y004250D01*
X016983Y004250D02*
X016983Y003500D01*
X017983Y002750D01*
X017983Y000750D01*
X011608Y000750D01*
X010433Y002862D01*
X010858Y002885D02*
X006551Y002885D01*
X006670Y003124D02*
X010858Y003124D01*
X010858Y003362D02*
X006789Y003362D01*
X006909Y003601D02*
X010858Y003601D01*
X010858Y003839D02*
X007028Y003839D01*
X007108Y004000D02*
X010858Y004000D01*
X010858Y002125D01*
X008858Y001250D01*
X008358Y001250D01*
X006358Y002500D01*
X007108Y004000D01*
X006608Y004500D02*
X006608Y004950D01*
X006558Y005000D01*
X006608Y006500D01*
X007608Y006500D01*
X008608Y006500D02*
X008608Y007750D01*
X007608Y007785D01*
X003824Y007785D01*
X003608Y008126D01*
X002608Y008126D01*
X002484Y008126D01*
X001608Y007250D01*
X001608Y001750D01*
X003608Y001750D01*
X003608Y002376D01*
X003608Y001750D02*
X005358Y001750D01*
X005358Y002376D01*
X005358Y001750D02*
X005858Y001750D01*
X006890Y002862D01*
X008358Y003500D01*
X008358Y005000D01*
X009358Y005000D02*
X009608Y005250D01*
X010358Y004500D01*
X011233Y004500D01*
X011608Y003750D01*
X011799Y002868D01*
X011358Y002885D02*
X015858Y002885D01*
X015858Y002750D02*
X013858Y001250D01*
X013358Y001250D01*
X011358Y002500D01*
X011358Y003250D01*
X015858Y003250D01*
X015858Y002750D01*
X015720Y002647D02*
X011358Y002647D01*
X011505Y002408D02*
X015402Y002408D01*
X015084Y002170D02*
X011887Y002170D01*
X012269Y001931D02*
X014766Y001931D01*
X014448Y001693D02*
X012650Y001693D01*
X013032Y001454D02*
X014130Y001454D01*
X015858Y003124D02*
X011358Y003124D01*
X010858Y002647D02*
X006432Y002647D01*
X006505Y002408D02*
X010858Y002408D01*
X010858Y002170D02*
X006887Y002170D01*
X007269Y001931D02*
X010415Y001931D01*
X009870Y001693D02*
X007650Y001693D01*
X008032Y001454D02*
X009325Y001454D01*
X012108Y003875D02*
X015108Y003875D01*
X015858Y004250D01*
X014858Y004750D02*
X014858Y006250D01*
X014608Y006500D01*
X013835Y006500D01*
X013835Y006000D02*
X013108Y006000D01*
X012858Y007750D01*
X012000Y008108D01*
X012110Y009388D01*
X012248Y009250D01*
X012558Y009250D01*
X012110Y009388D02*
X012000Y010668D01*
X011358Y011500D01*
X010220Y010668D02*
X010110Y009388D01*
X010220Y008108D01*
X009608Y006750D01*
X009608Y005250D01*
X012108Y005000D02*
X012108Y003875D01*
X012858Y004750D02*
X013858Y004750D01*
X014858Y004750D01*
X013835Y005500D02*
X012608Y005500D01*
X012108Y005000D01*
X013835Y007000D02*
X013858Y007000D01*
X013858Y007750D01*
X014858Y008750D02*
X014608Y009000D01*
X014608Y010250D01*
X014858Y010500D01*
X015742Y010500D01*
X015108Y011250D02*
X014358Y011250D01*
X013108Y010000D01*
X013108Y009300D01*
X013158Y009250D01*
X015108Y011250D02*
X016058Y011450D01*
X016108Y011450D01*
X017474Y010500D02*
X018608Y010450D01*
X018858Y011450D01*
X018608Y010450D02*
X019858Y009874D01*
X019858Y009126D02*
X018608Y009050D01*
X019858Y008000D02*
X019858Y006800D01*
X020608Y006750D01*
X020608Y002500D01*
X018858Y000750D01*
X017983Y000750D01*
X016983Y004250D02*
X015882Y005500D01*
X018358Y005375D02*
X019858Y005000D01*
X019858Y006200D01*
X017482Y009250D02*
X017474Y010500D01*
X017858Y013250D02*
X018058Y014750D01*
X017858Y016250D01*
X017858Y017410D01*
X017858Y018590D02*
X016108Y018750D01*
X014608Y018750D01*
X013787Y018630D01*
X012787Y018630D01*
X011610Y018610D02*
X010610Y018610D01*
X011608Y018608D02*
X011610Y018610D01*
X011608Y018608D02*
X011608Y017250D01*
X013608Y017250D01*
X016108Y017590D01*
X011122Y014177D02*
X011358Y013500D01*
X013108Y012000D02*
X013939Y012000D01*
X011122Y015177D02*
X011108Y016250D01*
X009608Y018000D01*
X008108Y018000D01*
X007858Y017750D01*
X006608Y018250D02*
X005778Y018250D01*
X006608Y018250D02*
X006608Y019250D01*
X005778Y019250D01*
X004439Y019250D02*
X003608Y019250D01*
X002108Y019000D01*
X002108Y018169D01*
X002108Y016831D02*
X002108Y016000D01*
X001858Y015000D01*
X001858Y010500D01*
X002608Y009500D01*
X002608Y008874D01*
X003608Y008874D02*
X003608Y009500D01*
X003308Y010750D01*
X002608Y011581D01*
X005558Y011500D02*
X005608Y009500D01*
X006608Y009500D02*
X007008Y010750D01*
X006858Y011150D01*
X005558Y011500D02*
X005608Y014000D01*
X003108Y016250D02*
X002108Y016000D01*
X003608Y017250D02*
X004439Y017250D01*
X003608Y017250D02*
X003608Y018250D01*
X004439Y018250D01*
X007608Y009500D02*
X007608Y008965D01*
X005608Y006500D02*
X005858Y005750D01*
X005858Y004500D01*
X005358Y004000D01*
X004608Y004000D01*
X003358Y005000D01*
X002358Y005000D02*
X003608Y003124D01*
X005358Y003124D02*
X005858Y003500D01*
X006608Y004500D01*
X005158Y005000D02*
X004608Y005550D01*
X004608Y006500D01*
X004618Y007202D01*
X004618Y008383D02*
X004698Y008465D01*
X003608Y006500D02*
X002608Y006500D01*
X002358Y005000D01*
D31*
X001608Y002375D02*
X010483Y002500D01*
X013197Y000650D01*
X005395Y000650D01*
X005377Y000668D01*
X001608Y000668D01*
X001608Y002375D01*
X001608Y002372D02*
X010672Y002372D01*
X010527Y002470D02*
X008354Y002470D01*
X010816Y002273D02*
X001608Y002273D01*
X001608Y002175D02*
X010961Y002175D01*
X011105Y002076D02*
X001608Y002076D01*
X001608Y001978D02*
X011250Y001978D01*
X011394Y001879D02*
X001608Y001879D01*
X001608Y001781D02*
X011539Y001781D01*
X011683Y001682D02*
X001608Y001682D01*
X001608Y001584D02*
X011827Y001584D01*
X011972Y001485D02*
X001608Y001485D01*
X001608Y001387D02*
X012116Y001387D01*
X012261Y001288D02*
X001608Y001288D01*
X001608Y001190D02*
X012405Y001190D01*
X012550Y001091D02*
X001608Y001091D01*
X001608Y000993D02*
X012694Y000993D01*
X012839Y000894D02*
X001608Y000894D01*
X001608Y000796D02*
X012983Y000796D01*
X013128Y000697D02*
X001608Y000697D01*
X014108Y000750D02*
X016358Y002500D01*
X016358Y003500D01*
X018733Y003500D01*
X018733Y004250D01*
X020608Y004250D01*
X020608Y000750D01*
X014108Y000750D01*
X014167Y000796D02*
X020608Y000796D01*
X020608Y000894D02*
X014293Y000894D01*
X014420Y000993D02*
X020608Y000993D01*
X020608Y001091D02*
X014547Y001091D01*
X014673Y001190D02*
X020608Y001190D01*
X020608Y001288D02*
X014800Y001288D01*
X014927Y001387D02*
X020608Y001387D01*
X020608Y001485D02*
X015053Y001485D01*
X015180Y001584D02*
X020608Y001584D01*
X020608Y001682D02*
X015307Y001682D01*
X015433Y001781D02*
X020608Y001781D01*
X020608Y001879D02*
X015560Y001879D01*
X015686Y001978D02*
X020608Y001978D01*
X020608Y002076D02*
X015813Y002076D01*
X015940Y002175D02*
X020608Y002175D01*
X020608Y002273D02*
X016066Y002273D01*
X016193Y002372D02*
X020608Y002372D01*
X020608Y002470D02*
X016320Y002470D01*
X016358Y002569D02*
X020608Y002569D01*
X020608Y002667D02*
X016358Y002667D01*
X016358Y002766D02*
X020608Y002766D01*
X020608Y002864D02*
X016358Y002864D01*
X016358Y002963D02*
X020608Y002963D01*
X020608Y003061D02*
X016358Y003061D01*
X016358Y003160D02*
X020608Y003160D01*
X020608Y003258D02*
X016358Y003258D01*
X016358Y003357D02*
X020608Y003357D01*
X020608Y003455D02*
X016358Y003455D01*
X018733Y003554D02*
X020608Y003554D01*
X020608Y003652D02*
X018733Y003652D01*
X018733Y003751D02*
X020608Y003751D01*
X020608Y003849D02*
X018733Y003849D01*
X018733Y003948D02*
X020608Y003948D01*
X020608Y004046D02*
X018733Y004046D01*
X018733Y004145D02*
X020608Y004145D01*
X020608Y004243D02*
X018733Y004243D01*
D32*
X005608Y014000D03*
X019858Y017625D03*
M02*
